<?xml version="1.0" encoding="utf-8"?>
<!-- Generator: Adobe Illustrator 18.1.1, SVG Export Plug-In . SVG Version: 6.00 Build 0)  -->
<svg version="1.1" id="Слой_1" xmlns="http://www.w3.org/2000/svg" xmlns:xlink="http://www.w3.org/1999/xlink" x="0px" y="0px"
	 viewBox="0 0 1000 1000" enable-background="new 0 0 1000 1000" xml:space="preserve">
<g>
	<polygon fill="none" stroke="#000000" stroke-miterlimit="10" points="31.7,9.9 43.3,9.9 43.3,47.6 43.3,62.7 48.3,62.7 48.3,74.8 
		22.6,74.8 22.6,62.7 27.7,62.7 27.7,30.5 18.2,30.5 	"/>
	<ellipse fill="none" stroke="#000000" stroke-miterlimit="10" cx="84.8" cy="42.2" rx="32.1" ry="32.2"/>
	<ellipse fill="none" stroke="#000000" stroke-miterlimit="10" cx="84.8" cy="42.2" rx="17.5" ry="17.5"/>
	<line fill="none" stroke="#E30613" stroke-miterlimit="10" x1="5.4" y1="6.8" x2="0" y2="6.8"/>
	<line fill="none" stroke="#E30613" stroke-miterlimit="10" x1="13.5" y1="6.8" x2="8.1" y2="6.8"/>
	<line fill="none" stroke="#E30613" stroke-miterlimit="10" x1="6.8" y1="0" x2="6.8" y2="5.5"/>
	<line fill="none" stroke="#E30613" stroke-miterlimit="10" x1="6.8" y1="8.1" x2="6.8" y2="13.5"/>
	<ellipse fill="none" stroke="#E30613" stroke-miterlimit="10" cx="85.1" cy="42.1" rx="5" ry="5"/>
	<g>
		<line fill="none" stroke="#E30613" stroke-miterlimit="10" x1="117.9" y1="6.8" x2="112.5" y2="6.8"/>
		<line fill="none" stroke="#E30613" stroke-miterlimit="10" x1="126" y1="6.8" x2="120.6" y2="6.8"/>
		<line fill="none" stroke="#E30613" stroke-miterlimit="10" x1="119.2" y1="0" x2="119.2" y2="5.5"/>
		<line fill="none" stroke="#E30613" stroke-miterlimit="10" x1="119.2" y1="8.1" x2="119.2" y2="13.5"/>
	</g>
	<g>
		<line fill="none" stroke="#E30613" stroke-miterlimit="10" x1="115.9" y1="78.2" x2="110.5" y2="78.2"/>
		<line fill="none" stroke="#E30613" stroke-miterlimit="10" x1="124" y1="78.2" x2="118.5" y2="78.2"/>
		<line fill="none" stroke="#E30613" stroke-miterlimit="10" x1="117.2" y1="71.5" x2="117.2" y2="76.9"/>
		<line fill="none" stroke="#E30613" stroke-miterlimit="10" x1="117.2" y1="79.5" x2="117.2" y2="85"/>
	</g>
	<g>
		<line fill="none" stroke="#E30613" stroke-miterlimit="10" x1="5.4" y1="78.2" x2="0" y2="78.2"/>
		<line fill="none" stroke="#E30613" stroke-miterlimit="10" x1="13.5" y1="78.2" x2="8.1" y2="78.2"/>
		<line fill="none" stroke="#E30613" stroke-miterlimit="10" x1="6.8" y1="71.5" x2="6.8" y2="76.9"/>
		<line fill="none" stroke="#E30613" stroke-miterlimit="10" x1="6.8" y1="79.5" x2="6.8" y2="85"/>
	</g>
	<line fill="none" stroke="#E30613" stroke-miterlimit="10" x1="85.1" y1="42.1" x2="112.5" y2="73.8"/>
</g>
<g>
	<defs>
		<rect id="SVGID_1_" x="127" y="0" width="135" height="77"/>
	</defs>
	<clipPath id="SVGID_2_">
		<use xlink:href="#SVGID_1_"  overflow="visible"/>
	</clipPath>
	<path clip-path="url(#SVGID_2_)" fill="none" stroke="#000000" stroke-miterlimit="10" d="M177.8,62.5c0.7,0.4,1.4,0.7,2.1,1.1
		c0.1,0.1,0.3,0.1,0.4,0.2c1,0.5,1.3,1.4,1.3,2.5c0,0.5,0.1,0.9,0.5,1.2c1.3,0.9,2.7,1.3,4.2,1.2c0.2,0,0.6-0.2,0.7-0.5
		c0.2-0.5,0.5-0.5,0.9-0.6c0.3-0.1,0.7-0.1,1-0.3c0.5-0.5,1.1-0.4,1.6-0.3c0.4,0.1,0.9,0.3,1.1,0.6c0.6,1.4,2.4,1.8,3.4,1.2
		c0.6-0.3,1.3-0.4,2-0.4c0.4,0,0.8,0,1.2-0.1c0.7-0.1,0.9-0.4,1-1.1c0-0.4,0.1-0.8,0.2-1.1c0.1-0.4,0.4-0.6,0.8-0.6
		c0.7,0,1.2,0.4,1.6,1c0.5,0.7,1,1.3,1.5,1.9c0.6,0.6,1.3,0.9,2.2,0.6c0.9-0.3,1.7-0.3,2.6,0.1c0.9,0.3,1.7,0.7,2.6,1
		c0.4,0.1,0.8,0,1.2,0c0.9,0.1,1.7-0.1,2.3-0.6c0.7-0.5,1.4-1.1,2-1.7c0.3-0.3,0.6-0.4,1-0.1c0.6,0.4,1.2,0.5,1.9,0.3
		c0.4-0.1,0.8,0,1.2,0.2c0.6,0.3,1.1,0.3,1.6-0.1c0.2-0.2,0.5-0.5,0.6-0.8c0.2-0.8,0.3-1.6,0.5-2.3c0.3-1,0.5-2,0.3-3.1
		c-0.1-0.4-0.1-0.8,0-1.2c0.1-0.8,0.5-1.1,1.2-1.2c1.6-0.1,3.1,0.2,4.5,0.7c1.3,0.4,2.2,1.1,2,2.7c0,0.2,0,0.5,0.1,0.6
		c0.2,0.3,0.5,0.6,0.8,0.8c0.2,0.2,0.6,0.2,0.9,0.2c1,0.1,2,0.1,3.1,0.1c0.6,0,0.9,0.2,1.2,0.7c0.6,1.3,1.5,1.4,2.5,0.1c0,0,0,0,0,0
		c0.4-0.6,0.9-1.1,1.3-1.7c0.3-0.3,0.6-0.4,0.9-0.2c0.2,0.1,0.4,0.5,0.4,0.8c-0.1,1.4-0.2,2.8-0.3,4.3c0,0.1-0.2,0.3-0.3,0.3
		c-0.5,0.1-0.9,0.5-1.2,0.9c-0.8,1.4-0.9,2.9-0.7,4.4c0.1,0.5,0.3,1.1,0.6,1.5c0.3,0.5,0.7,0.5,1.2,0.2c0.6-0.4,0.9-0.9,1.2-1.6
		c0.2-0.6,0.6-0.9,1.2-0.9c0.5,0,0.9-0.2,1.2-0.6c0.8-1,1.3-2.1,1.5-3.3c0.5-2.5,0.8-5,0.9-7.5c0-0.5,0-1.1-0.2-1.5
		c-0.2-0.6-0.2-1.2-0.2-1.8c0-0.5,0-1-0.1-1.4c-0.1-0.3-0.4-0.5-0.5-0.8c-0.3-0.6-0.5-1.2-0.9-1.7c-0.5-0.9-0.8-1.7-0.9-2.7
		c0-1.1-0.7-1.9-1.8-2c-1.8-0.2-2.6,0-2.8,1.9c0,0.4-0.2,0.7-0.3,1.2c-0.3-0.4-0.5-0.7-0.7-1c-0.3-0.5-0.4-0.5-0.9-0.2
		c-0.2,0.1-0.5,0.1-0.7,0.1c-0.1,0-0.3-0.3-0.3-0.5c-0.1-1,0.2-1.9,0.5-2.9c0.4-1.4,0.9-2.8,1.1-4.2c0.1-0.6,0.2-1.3,0.5-1.9
		c0.5-1,1.1-1.9,1.6-2.8c0.5-0.8,1.1-1.2,2-1.3c0.4,0,0.7-0.1,1-0.3c0.8-0.4,1.4-1.2,1.9-1.9c0.4-0.7,0.4-0.7,1.2-0.5
		c0.7,0.1,1.3-0.5,1.1-1.2c-0.4-1.2-0.7-2.5-1.1-3.7c-0.2-0.6-0.3-1.1,0.4-1.5c0.4-0.2,0.6-0.8,0.9-1.2c0.9,0.2,1.2,0,1.3-0.8
		c0.1-0.8-0.1-1.5-0.6-2.1c-0.2-0.3-0.4-0.6-0.6-0.9c-0.1-0.1-0.1-0.3-0.1-0.4c0-0.1,0.3-0.1,0.4-0.1c1,0.2,1.8,0.6,2.1,1.6
		c0.2,0.7,0.5,1.4,0.6,2.1c0.1,0.7,0.2,1.5-0.3,2.2c-0.1,0.2-0.2,0.5-0.2,0.7c0.1,3.2,1.2,5.9,3.4,8.1c1,1,2,2,2.8,3.2
		c0.8,1.2,1.9,1.9,3.3,2c0.7,0,1.1-0.3,0.8-1c-0.4-0.9-0.5-1.8-0.5-2.8c0-0.4-0.2-0.7-0.6-0.9c-0.1,0-0.3-0.2-0.3-0.3
		c-0.1-0.4-0.1-0.8-0.1-1.1c0.1-0.6,0.2-1.3,0.3-1.9c0.1-0.6,0-1.2-0.5-1.6c-0.3-0.3-0.6-0.5-0.8-0.8c0.7-0.9,0.7-1.2-0.2-1.9
		c-0.3-0.2-0.6-0.5-1-0.7c-0.3-0.2-0.4-0.3-0.4-0.7c-0.1-0.8-0.8-1.3-1.6-1.1c-0.2,0.1-0.5,0.2-0.6,0.3c-0.3-0.6,0.2-0.1,0,0
		c-0.3-0.6-0.6-1.1-0.9-1.6c-0.4-0.6-0.4-0.8,0.2-1.2c0.4-0.3,0.5-0.7,0.3-1.2c-0.2-0.3-0.4-0.5-0.5-0.8c-0.1-0.2-0.3-0.5,0-0.8
		c0.9-0.6,1.4-1.6,1.8-2.6c0.5-1.4,0.9-2.8,0.2-4.3c-0.3-0.6-0.3-1.3-0.1-2c0.2-0.5,0.4-1.1,0.5-1.6c0.2-0.7,0.1-1-0.6-1.2
		c-0.4-0.2-0.8-0.4-1.1-0.6c-0.7-0.5-1.4-0.5-2.1,0c-0.3,0.3-0.7,0.6-1,1c-0.3-0.5,0-0.8,0.2-1.1c0.4-0.5,0.8-1,0.7-1.7
		c0-0.3-0.2-0.6-0.3-0.9c1-0.4,1.3-0.6,1.5-1.8c0.1-0.3,0.2-0.6,0.4-0.8c0.3-0.2,0.6-0.4,0.9-0.6c0.3-0.2,0.6-0.5,0.6-0.9
		c0-1-0.7-1.7-1.7-1.8c0-0.2,0-0.5,0-0.7c0-0.3,0-0.6-0.2-0.9c-0.2-0.4-0.6-0.6-1-0.4c-0.2,0.1-0.4,0.2-0.6,0.4
		c-0.5,0.5-1,1-1.6,1.5c-0.5,0.4-0.8,0.8-0.7,1.5c-0.3,0-0.5,0-0.7,0c-0.5,0-1,0.1-1.4,0.4c-0.3,0.2-0.7,0.4-1,0.6
		c-1.1,0.6-2.1,1.1-2.7,2.3c-0.1,0.2-0.3,0.3-0.5,0.4c-0.7,0.5-1.5,0.9-2.2,1.5c-1.6,1.4,0.4,1.9,0.4,2.9c-3,0.6-3.8,3-5.9,3.6
		c-0.9-0.4-1.9-0.6-2.9-0.4c-0.6,0.5-1,1.1-1.2,1.9c-0.8,0.3-1.8,0.2-2.7,0.5c-0.8,0.2-1.2,0.6-2.1,1.2c-0.5,0.2-1.1,0.4-1.6,0.6
		c-0.7,0.5-0.9,1.2-0.8,2.1c-1.9,1.9-5.2-0.6-4.4,3c-1.5,0-1.7-2.4-2.7-2.9c-2-1-2,1-3.7,1.4c-1.1,0.2-2.1-0.5-3.2-0.4
		c-0.4,0-0.4,1-0.9,1.1c-0.7,0.1-1.7-0.4-2.3-0.5c0.4-0.6,2-3.5,1.8-4.3c-0.5-1.8-0.8-0.4-2.3-1.5c-1-0.7,0.8-2-1.7-2.3
		c-2.2-0.3-1.1,1.3-2.1,2.5c-0.5,0.5-1.7,1.2-2.4,1.3c-0.1-0.1-0.3-0.2-0.4-0.4c-0.6-0.7-1.2-0.7-1.8,0.1c-1.8,0.2-3.3,1.1-3.8,3.8
		c-1.9-0.2-3.2-2.1-3.9,1.1c-1.2-0.3-2.3-2.1-3.3-1.6c-1.3,0.5-1.1-2-3-2.1c-0.7,0-4.3,6.5-4.4,5.8c0.2,0.9-1.2-3.5-2.8-3.7
		c-0.4-0.1-1.1,1.2-1.6,1c-0.9-0.3-0.8-1.6-1.5-2.1c-0.6-0.4-1.3,0.5-1.7,0.2c-0.6-0.4-1.2-1.4-1.8-1.6c-1.3-0.6-1.5,0.6-2.4-0.7
		c-0.6-0.9-0.6,0.1-2.4-0.1c-1.1-0.1-3.4-1.8-3.2-1.7c-0.4,0-0.8,0.1-1.1,0.2c-0.7,0.4-3.6,0-3.7,0c-0.2-0.1-1.1-1-1.4-1.3
		c0.6-0.9,3.1-1.3,3.6-2.1c0.6-0.9,0.6-1.1,1.1-2.3c1.2,0,2.9,5.7,6.8,0.9c1.5-1.9-1-4.1-2.8-5.5c-1.4-1-1.8-0.5-3,0.1
		c-1.3,0.6-3.3,1.4-4.6,2.2c-1.2,0.8-2.4,3.1-3.4,3.7c-1.6,0.9-2.5-0.8-4-0.8c-0.5,0-1,0-1.3,0.2c-0.4,0.2-0.5,0.7-0.8,1.1
		c-0.9-0.6-1.8-0.5-2.7,0.2c-0.1,0.1-0.2,0.1-0.3,0c-0.8-0.4-1.4-0.3-1.8,0.4c-0.4,0.8-1,1.3-1.6,1.7c-0.6,0.5-0.8,1-0.6,1.7
		c0.2,0.7,0.6,1.3,0.8,2c0.2,0.4,0,0.7-0.4,0.8c-0.3,0.1-0.5,0.2-0.7,0.4c-0.6,0.4-0.7,1-0.6,1.6c0,0.2,0.1,0.5-0.3,0.5
		c-0.5,0.1-1,0.1-1.5-0.3c-0.6-0.4-0.9-0.3-1.6,0.2c-0.5,0.4-0.8,1-0.6,1.5c0.2,0.5,0.6,1,0.9,1.4c0.4,0.6,0.4,0.7,0,1.3
		c-0.1,0.2-0.3,0.4-0.4,0.6c-0.3,0.6-0.7,1.2-0.2,2c0.2,0.3,0.3,0.6,0.3,1c0,0.8,0.1,1.6,0.6,2.2c0.1,0.1,0.1,0.3,0.1,0.4
		c-0.1,0.5-0.2,0.9-0.3,1.4c-0.2,0.6-0.3,0.6-0.9,0.5c-0.6-0.1-1.3-0.3-1.9-0.2c-0.5,0.1-1,0.4-1.5,0c-0.1-0.1-0.5,0-0.7,0
		c-0.3,0.1-0.6,0.3-0.9,0.5c-0.3,0.2-0.5,0.5-0.8,0.5c-0.2,0-0.4-0.4-0.6-0.6c-0.6-0.7-1.4-0.6-1.8,0.2c-0.2,0.5-0.2,1-0.3,1.5
		c0,0.1,0.1,0.2,0.2,0.3c0.4,0.4,0.4,0.8,0.2,1.2c-0.1,0.3-0.2,0.6-0.4,0.9c-0.6,1.3-0.6,1.5,0.5,2.5c0,0,0.1,0.1,0.1,0.1
		c0.5,0.2,0.6,0.6,0.6,1.1c0,0.8,0.1,1.5,0.2,2.3c0.1,0.8,0.5,1.4,1.3,1.5c0.5,0.1,0.7,0.4,0.7,0.9c0,0.6,0,1.2,0,1.8
		c0,1.1,0,2.2,0.4,3.3c0.3,0.9,1,1.3,1.9,1.3c0.7-0.1,1-0.6,0.9-1.3c-0.1-0.4-0.2-0.7-0.3-1.1c-0.1-0.5,0-0.7,0.6-0.8
		c0.1,0,0.2,0,0.3,0c0.6-0.1,0.8-0.4,0.9-1c0-0.4,0.1-0.8,0.3-1.2c0.5-0.9,1.2-1.1,2.1-0.7c0.4,0.2,0.8,0.4,1.3,0.5
		c0.7,0.2,1.1-0.2,1.2-0.9c0-0.2,0-0.4,0.1-0.6c0.7-1.2,0.6-2.3,0.1-3.5c-0.2-0.7-0.2-0.7,0.4-1c0.1,0,0.1-0.1,0.2-0.1
		c0.5-0.3,0.9-0.6,1.4-0.9c0.5-0.3,0.7-0.2,0.7,0.4c0,0.3,0,0.7,0.2,1c0.1,0.4,0.5,0.7,1,0.7c0.3,0,0.7-0.3,0.8-0.6
		c0.2-0.9,0.7-1.1,1.5-1c0.1,0,0.1,0,0.2,0c0.7,0,1,0.2,1.3,0.9c0.2,0.6,0.6,1.1,1.3,1.3c0.8,0.3,0.8,0.2,0.8,1.1c0,0.2,0,0.3,0,0.5
		c0,1.3,0.6,2,1.9,2.3c0.2,0,0.5,0,0.7,0.1c1.4,0.2,1.8,0.4,2.2,1.8c0.2,0.7,0.6,1.2,1.2,1.4c0.9,0.3,1.6-0.3,1.5-1.2
		c0-0.3-0.1-0.5-0.1-0.8c0-0.1,0.1-0.3,0.2-0.3c0.6,0.1,0.7-0.4,0.9-0.8c0.9,0,1.1-0.1,1.2-1c0-0.4,0.3-0.5,0.6-0.5
		c0.4,0,0.8,0.1,1.2,0.2c2.1,0.8,4.3,1.7,6.4,2.5c0.3,0.1,0.4,0.3,0.4,0.6c0,0.5,0,1.1,0.4,1.4c0.3,0.2,0.7,0.4,1.1,0.5
		c0.4,0.1,0.6,0.3,0.8,0.6c0.4,0.9,1,1.7,1.9,2.1c0.6,0.2,1.2,0.4,1.9,0.5c0,0.2,0,0.4,0,0.6c0,1.1-0.1,2.3,0.6,3.2
		c0.5,0.7,0.5,1.5,0.6,2.3c0,0.2,0,0.4,0,0.5c0.1,0.2,0.3,0.6,0.5,0.6c0.2,0.1,0.5-0.1,0.7-0.3L177.8,62.5z"/>
	<polyline clip-path="url(#SVGID_2_)" fill="none" stroke="#E30613" stroke-miterlimit="10" points="219.3,43.2 211.4,43.2 
		211.4,50.6 	"/>
	<path clip-path="url(#SVGID_2_)" fill="none" stroke="#E30613" stroke-miterlimit="10" d="M211.4,43.2c0,0,31.9,26.3,21.2,31.9
		c-9.2,4.8-17.4-5.7-17.4-5.7"/>
	<polyline clip-path="url(#SVGID_2_)" fill="none" stroke="#E30613" stroke-miterlimit="10" points="152.5,34.2 161.3,34.2 
		161.3,26.2 	"/>
	<path clip-path="url(#SVGID_2_)" fill="none" stroke="#E30613" stroke-miterlimit="10" d="M161.3,34.2c0,0-43.9-26.7-21.2-31.9
		c10.9-2.5,17.2,6.6,17.2,6.6"/>
	<path clip-path="url(#SVGID_2_)" fill="none" stroke="#E30613" stroke-miterlimit="10" d="M170.2,42c-1,1.6-3.1,2-4.7,1
		c-1.6-1.1-2-3.2-0.9-4.8c1-1.6,3.1-2,4.7-1C170.8,38.3,171.3,40.4,170.2,42z"/>
	
		<ellipse clip-path="url(#SVGID_2_)" fill="none" stroke="#E30613" stroke-miterlimit="10" cx="205.2" cy="36.6" rx="3.4" ry="3.5"/>
	
		<line clip-path="url(#SVGID_2_)" fill="none" stroke="#E30613" stroke-miterlimit="10" x1="192.5" y1="56.9" x2="187.6" y2="56.9"/>
	
		<line clip-path="url(#SVGID_2_)" fill="none" stroke="#E30613" stroke-miterlimit="10" x1="199.8" y1="56.9" x2="194.9" y2="56.9"/>
	
		<line clip-path="url(#SVGID_2_)" fill="none" stroke="#E30613" stroke-miterlimit="10" x1="193.7" y1="50.7" x2="193.7" y2="55.7"/>
	
		<line clip-path="url(#SVGID_2_)" fill="none" stroke="#E30613" stroke-miterlimit="10" x1="193.7" y1="58.1" x2="193.7" y2="63.1"/>
	<line clip-path="url(#SVGID_2_)" fill="none" stroke="#E30613" stroke-miterlimit="10" x1="237.4" y1="24" x2="232.5" y2="24"/>
	<line clip-path="url(#SVGID_2_)" fill="none" stroke="#E30613" stroke-miterlimit="10" x1="244.7" y1="24" x2="239.8" y2="24"/>
	
		<line clip-path="url(#SVGID_2_)" fill="none" stroke="#E30613" stroke-miterlimit="10" x1="238.6" y1="17.8" x2="238.6" y2="22.7"/>
	
		<line clip-path="url(#SVGID_2_)" fill="none" stroke="#E30613" stroke-miterlimit="10" x1="238.6" y1="25.2" x2="238.6" y2="30.1"/>
</g>
<g>
	<rect x="263.2" y="10.1" fill="none" stroke="#000000" stroke-miterlimit="10" width="14.6" height="76.3"/>
	<line fill="none" stroke="#E30613" stroke-miterlimit="10" x1="304.2" y1="54.5" x2="350" y2="88"/>
	<polygon fill="none" stroke="#000000" stroke-miterlimit="10" points="277.9,35.1 277.9,73.9 330.4,73.9 	"/>
	<polygon fill="none" stroke="#000000" stroke-miterlimit="10" points="285.6,52.4 285.6,65.8 305.5,65.8 	"/>
	<line fill="none" stroke="#E30613" stroke-miterlimit="10" x1="278.7" y1="35.1" x2="303.6" y2="7.9"/>
	<ellipse fill="none" stroke="#E30613" stroke-miterlimit="10" cx="306.4" cy="5.1" rx="4" ry="4"/>
	<g>
		<polygon fill="none" stroke="#000000" stroke-miterlimit="10" points="305.6,47.1 304.1,53.9 311.5,52.2 341.9,21.3 334.8,15.3 		
			"/>
		<line fill="none" stroke="#000000" stroke-miterlimit="10" x1="309" y1="48.9" x2="333.4" y2="23.9"/>
		<line fill="none" stroke="#000000" stroke-miterlimit="10" x1="329.8" y1="20.8" x2="336.4" y2="26.4"/>
		<line fill="none" stroke="#000000" stroke-miterlimit="10" x1="306" y1="46.8" x2="312.6" y2="52.4"/>
	</g>
	<g>
		<line fill="none" stroke="#000000" stroke-miterlimit="10" x1="263" y1="14.5" x2="266.9" y2="14.5"/>
		<line fill="none" stroke="#000000" stroke-miterlimit="10" x1="263" y1="20.7" x2="266.9" y2="20.7"/>
		<line fill="none" stroke="#000000" stroke-miterlimit="10" x1="263" y1="25.8" x2="266.9" y2="25.8"/>
		<line fill="none" stroke="#000000" stroke-miterlimit="10" x1="263" y1="31" x2="266.9" y2="31"/>
		<line fill="none" stroke="#000000" stroke-miterlimit="10" x1="263" y1="36.1" x2="266.9" y2="36.1"/>
		<line fill="none" stroke="#000000" stroke-miterlimit="10" x1="263" y1="41.3" x2="266.9" y2="41.3"/>
		<line fill="none" stroke="#000000" stroke-miterlimit="10" x1="263" y1="46.4" x2="266.9" y2="46.4"/>
		<line fill="none" stroke="#000000" stroke-miterlimit="10" x1="263" y1="51.6" x2="266.9" y2="51.6"/>
		<line fill="none" stroke="#000000" stroke-miterlimit="10" x1="263" y1="56.7" x2="266.9" y2="56.7"/>
		<line fill="none" stroke="#000000" stroke-miterlimit="10" x1="263" y1="61.9" x2="266.9" y2="61.9"/>
		<line fill="none" stroke="#000000" stroke-miterlimit="10" x1="263" y1="67" x2="266.9" y2="67"/>
		<line fill="none" stroke="#000000" stroke-miterlimit="10" x1="263" y1="72.2" x2="266.9" y2="72.2"/>
		<line fill="none" stroke="#000000" stroke-miterlimit="10" x1="263" y1="78.3" x2="266.9" y2="78.3"/>
		<line fill="none" stroke="#000000" stroke-miterlimit="10" x1="263" y1="83.5" x2="266.9" y2="83.5"/>
	</g>
	<path fill="none" stroke="#E30613" stroke-miterlimit="10" d="M302.4,7.2"/>
	<g>
		<line fill="none" stroke="#E30613" stroke-miterlimit="10" x1="281.6" y1="5.7" x2="277" y2="5.7"/>
		<line fill="none" stroke="#E30613" stroke-miterlimit="10" x1="288.5" y1="5.7" x2="283.9" y2="5.7"/>
		<line fill="none" stroke="#E30613" stroke-miterlimit="10" x1="282.8" y1="0" x2="282.8" y2="4.6"/>
		<line fill="none" stroke="#E30613" stroke-miterlimit="10" x1="282.8" y1="6.8" x2="282.8" y2="11.4"/>
	</g>
	<line fill="none" stroke="#000000" stroke-miterlimit="10" x1="283" y1="39.1" x2="280.2" y2="41.9"/>
	<line fill="none" stroke="#000000" stroke-miterlimit="10" x1="287.2" y1="42.2" x2="284.4" y2="45"/>
	<line fill="none" stroke="#000000" stroke-miterlimit="10" x1="291.6" y1="45.6" x2="288.8" y2="48.4"/>
	<line fill="none" stroke="#000000" stroke-miterlimit="10" x1="295.7" y1="48.7" x2="292.9" y2="51.5"/>
	<line fill="none" stroke="#000000" stroke-miterlimit="10" x1="299.8" y1="51.7" x2="297" y2="54.5"/>
	<line fill="none" stroke="#000000" stroke-miterlimit="10" x1="303.6" y1="54.5" x2="300.8" y2="57.3"/>
	<line fill="none" stroke="#000000" stroke-miterlimit="10" x1="308" y1="57.7" x2="305.2" y2="60.5"/>
	<line fill="none" stroke="#000000" stroke-miterlimit="10" x1="312" y1="60.5" x2="309.2" y2="63.2"/>
	<line fill="none" stroke="#000000" stroke-miterlimit="10" x1="316.1" y1="63.9" x2="313.3" y2="66.6"/>
	<line fill="none" stroke="#000000" stroke-miterlimit="10" x1="320" y1="66.6" x2="317.2" y2="69.4"/>
</g>
<path fill="none" stroke="#000000" stroke-miterlimit="10" d="M384.7,29.1"/>
<g>
	<defs>
		<rect id="SVGID_3_" x="351" y="0" width="98" height="87"/>
	</defs>
	<clipPath id="SVGID_4_">
		<use xlink:href="#SVGID_3_"  overflow="visible"/>
	</clipPath>
	
		<ellipse clip-path="url(#SVGID_4_)" fill="none" stroke="#000000" stroke-miterlimit="10" cx="411.8" cy="50" rx="36.6" ry="36.4"/>
	
		<ellipse clip-path="url(#SVGID_4_)" fill="none" stroke="#000000" stroke-miterlimit="10" cx="411.8" cy="50" rx="27.4" ry="27.2"/>
	<line clip-path="url(#SVGID_4_)" fill="none" stroke="#000000" stroke-miterlimit="10" x1="411.8" y1="22.8" x2="411.8" y2="27"/>
	
		<line clip-path="url(#SVGID_4_)" fill="none" stroke="#000000" stroke-miterlimit="10" x1="411.8" y1="73.3" x2="411.8" y2="77.5"/>
	
		<line clip-path="url(#SVGID_4_)" fill="none" stroke="#000000" stroke-miterlimit="10" x1="439.3" y1="50.2" x2="435.1" y2="50.2"/>
	
		<line clip-path="url(#SVGID_4_)" fill="none" stroke="#000000" stroke-miterlimit="10" x1="388.6" y1="50.2" x2="384.4" y2="50.2"/>
	
		<line clip-path="url(#SVGID_4_)" fill="none" stroke="#000000" stroke-miterlimit="10" x1="431.3" y1="69.5" x2="428.3" y2="66.5"/>
	
		<line clip-path="url(#SVGID_4_)" fill="none" stroke="#000000" stroke-miterlimit="10" x1="395.4" y1="33.8" x2="392.4" y2="30.8"/>
	
		<line clip-path="url(#SVGID_4_)" fill="none" stroke="#000000" stroke-miterlimit="10" x1="439.3" y1="50.2" x2="435.1" y2="50.2"/>
	
		<line clip-path="url(#SVGID_4_)" fill="none" stroke="#000000" stroke-miterlimit="10" x1="388.6" y1="50.2" x2="384.4" y2="50.2"/>
	
		<line clip-path="url(#SVGID_4_)" fill="none" stroke="#000000" stroke-miterlimit="10" x1="392.4" y1="69.5" x2="395.4" y2="66.5"/>
	
		<line clip-path="url(#SVGID_4_)" fill="none" stroke="#000000" stroke-miterlimit="10" x1="428.3" y1="33.8" x2="431.3" y2="30.8"/>
	
		<line clip-path="url(#SVGID_4_)" fill="none" stroke="#E30613" stroke-miterlimit="10" x1="410.6" y1="49.9" x2="406.3" y2="49.9"/>
	
		<line clip-path="url(#SVGID_4_)" fill="none" stroke="#E30613" stroke-miterlimit="10" x1="432.4" y1="49.9" x2="412.7" y2="49.9"/>
	
		<line clip-path="url(#SVGID_4_)" fill="none" stroke="#E30613" stroke-miterlimit="10" x1="411.7" y1="48.9" x2="411.7" y2="30.3"/>
	<line clip-path="url(#SVGID_4_)" fill="none" stroke="#E30613" stroke-miterlimit="10" x1="411.7" y1="51" x2="411.7" y2="55.3"/>
	<ellipse clip-path="url(#SVGID_4_)" fill="none" stroke="#E30613" stroke-miterlimit="10" cx="411.7" cy="4.6" rx="4.1" ry="4.1"/>
	<line clip-path="url(#SVGID_4_)" fill="none" stroke="#E30613" stroke-miterlimit="10" x1="411.8" y1="13.6" x2="411.8" y2="8.8"/>
	
		<line clip-path="url(#SVGID_4_)" fill="none" stroke="#000000" stroke-miterlimit="10" x1="373.8" y1="18.3" x2="381.2" y2="18.3"/>
	
		<line clip-path="url(#SVGID_4_)" fill="none" stroke="#000000" stroke-miterlimit="10" x1="364.8" y1="27.5" x2="374.3" y2="27.5"/>
	<line clip-path="url(#SVGID_4_)" fill="none" stroke="#000000" stroke-miterlimit="10" x1="354.2" y1="36.7" x2="368" y2="36.7"/>
	<line clip-path="url(#SVGID_4_)" fill="none" stroke="#000000" stroke-miterlimit="10" x1="351" y1="46.1" x2="366.9" y2="46.1"/>
	
		<line clip-path="url(#SVGID_4_)" fill="none" stroke="#000000" stroke-miterlimit="10" x1="353.5" y1="55.3" x2="367.3" y2="55.3"/>
	
		<line clip-path="url(#SVGID_4_)" fill="none" stroke="#000000" stroke-miterlimit="10" x1="361.4" y1="65.8" x2="370.9" y2="65.8"/>
	<line clip-path="url(#SVGID_4_)" fill="none" stroke="#000000" stroke-miterlimit="10" x1="367.6" y1="76.5" x2="376" y2="76.5"/>
</g>
<g>
	<g>
		<line fill="none" stroke="#E30613" stroke-miterlimit="10" x1="497.4" y1="82.9" x2="489.9" y2="80.3"/>
		<line fill="none" stroke="#E30613" stroke-miterlimit="10" x1="508.5" y1="86.7" x2="501" y2="84.1"/>
		<line fill="none" stroke="#E30613" stroke-miterlimit="10" x1="503.6" y1="78.7" x2="500" y2="82.6"/>
		<line fill="none" stroke="#E30613" stroke-miterlimit="10" x1="498.3" y1="84.4" x2="494.8" y2="88.2"/>
	</g>
	<polyline fill="none" stroke="#000000" stroke-miterlimit="10" points="489,58.5 498.5,75.9 508.1,58.5 	"/>
	<path fill="none" stroke="#000000" stroke-miterlimit="10" d="M481.2,39.6V55c0,0,5.1,4.7,17.4,4.7c12.2,0,17.4-4.7,17.4-4.7V39.2
		c0,0-5.7,3-17.4,3S481.2,39.6,481.2,39.6z"/>
	<line fill="none" stroke="#000000" stroke-miterlimit="10" x1="512.2" y1="31.9" x2="512.2" y2="40.9"/>
	<path fill="none" stroke="#000000" stroke-miterlimit="10" d="M512.2,30.5"/>
	<path fill="none" stroke="#000000" stroke-miterlimit="10" d="M485.3,30.5"/>
	<line fill="none" stroke="#000000" stroke-miterlimit="10" x1="485.3" y1="41.1" x2="485.3" y2="31.9"/>
	<polyline fill="none" stroke="#000000" stroke-miterlimit="10" points="455.7,51.3 459.6,51.4 460,52.4 461.3,52.4 481.2,52.4 	"/>
	<polyline fill="none" stroke="#000000" stroke-miterlimit="10" points="455.7,45.2 459.6,45.1 460,43.8 463.6,43.8 463.6,38.2 
		464.6,38.2 464.6,0 470.4,0 470.4,38 471.5,38.1 471.5,43.4 481.2,43.4 	"/>
	<path fill="none" stroke="#000000" stroke-miterlimit="10" d="M520.8,30.5c0,0-8,2.5-22.3,2.5c-14.2,0-21.2-2.5-21.2-2.5V0.8h43.5
		V30.5z"/>
	<polyline fill="none" stroke="#E30613" stroke-miterlimit="10" points="512.2,83 524.9,83 531.5,89.6 540,89.6 	"/>
	<polyline fill="none" stroke="#E30613" stroke-miterlimit="10" points="459.1,90 466.5,90 473.1,83.4 486.5,83.4 	"/>
	<line fill="none" stroke="#000000" stroke-miterlimit="10" x1="482.7" y1="25.1" x2="482.7" y2="5.8"/>
	<line fill="none" stroke="#000000" stroke-miterlimit="10" x1="490.8" y1="25.1" x2="490.8" y2="5.8"/>
	<line fill="none" stroke="#000000" stroke-miterlimit="10" x1="498.9" y1="25.1" x2="498.9" y2="5.8"/>
	<line fill="none" stroke="#000000" stroke-miterlimit="10" x1="507.1" y1="25.1" x2="507.1" y2="5.8"/>
	<line fill="none" stroke="#000000" stroke-miterlimit="10" x1="515.2" y1="25.1" x2="515.2" y2="5.8"/>
	<path fill="none" stroke="#000000" stroke-miterlimit="10" d="M481.2,39.2c0,0-0.5-1.7,3.7-1.6"/>
	<path fill="none" stroke="#000000" stroke-miterlimit="10" d="M515.9,38.8c0,0,0.1-1.5-4.1-1.4"/>
	<rect x="450" y="43.5" fill="none" stroke="#000000" stroke-miterlimit="10" width="5.7" height="9.4"/>
</g>
</svg>
