<?xml version="1.0" encoding="utf-8"?>
<!-- Generator: Adobe Illustrator 18.1.1, SVG Export Plug-In . SVG Version: 6.00 Build 0)  -->
<svg version="1.1" id="Слой_1" xmlns="http://www.w3.org/2000/svg" xmlns:xlink="http://www.w3.org/1999/xlink" x="0px" y="0px"
	 viewBox="0 0 329.7 56.1" enable-background="new 0 0 329.7 56.1" xml:space="preserve">
<polygon fill-rule="evenodd" clip-rule="evenodd" fill="#FFFFFF" points="54.9,36.1 53.8,38.8 49,37 50,34.2 "/>
<polygon fill="none" stroke="#FFFFFF" stroke-width="0.216" stroke-miterlimit="22.926" points="54.9,36.1 53.8,38.8 49,37 50,34.2 
	"/>
<polygon fill-rule="evenodd" clip-rule="evenodd" fill="#FFFFFF" points="52.5,41.7 51,44 46.6,41.2 48.1,38.9 "/>
<polygon fill="none" stroke="#FFFFFF" stroke-width="0.216" stroke-miterlimit="22.926" points="52.5,41.7 51,44 46.6,41.2 
	48.1,38.9 "/>
<polygon fill-rule="evenodd" clip-rule="evenodd" fill="#FFFFFF" points="48.8,46.8 46.9,48.7 43.3,44.9 45.2,43.1 "/>
<polygon fill="none" stroke="#FFFFFF" stroke-width="0.216" stroke-miterlimit="22.926" points="48.8,46.8 46.9,48.7 43.3,44.9 
	45.2,43.1 "/>
<polygon fill-rule="evenodd" clip-rule="evenodd" fill="#FFFFFF" points="44.1,51 41.9,52.3 39.2,47.9 41.4,46.5 "/>
<polygon fill="none" stroke="#FFFFFF" stroke-width="0.216" stroke-miterlimit="22.926" points="44.1,51 41.9,52.3 39.2,47.9 
	41.4,46.5 "/>
<polygon fill-rule="evenodd" clip-rule="evenodd" fill="#FFFFFF" points="38.7,53.9 36.5,54.7 34.8,49.8 37.1,49 "/>
<polygon fill="none" stroke="#FFFFFF" stroke-width="0.216" stroke-miterlimit="22.926" points="38.7,53.9 36.5,54.7 34.8,49.8 
	37.1,49 "/>
<polygon fill="#FFFFFF" points="29.7,50.8 30.1,55.9 32.4,55.7 31.9,50.5 "/>
<g>
	<defs>
		<rect id="SVGID_1_" y="0" width="329.7" height="56.1"/>
	</defs>
	<clipPath id="SVGID_2_">
		<use xlink:href="#SVGID_1_"  overflow="visible"/>
	</clipPath>
	<polygon clip-path="url(#SVGID_2_)" fill="none" stroke="#FFFFFF" stroke-width="0.216" stroke-miterlimit="22.926" points="
		32.4,55.7 30.1,55.9 29.7,50.8 31.9,50.5 	"/>
</g>
<polygon fill="#FFFFFF" points="24.5,55.8 26.6,56 27.2,50.8 25.1,50.6 "/>
<g>
	<defs>
		<rect id="SVGID_3_" y="0" width="329.7" height="56.1"/>
	</defs>
	<clipPath id="SVGID_4_">
		<use xlink:href="#SVGID_3_"  overflow="visible"/>
	</clipPath>
	<polygon clip-path="url(#SVGID_4_)" fill="none" stroke="#FFFFFF" stroke-width="0.216" stroke-miterlimit="22.926" points="
		26.6,56 24.5,55.8 25.1,50.6 27.2,50.8 	"/>
</g>
<polygon fill-rule="evenodd" clip-rule="evenodd" fill="#FFFFFF" points="20.4,54.9 18.5,54.3 20.2,49.4 22.1,50.1 "/>
<polygon fill="none" stroke="#FFFFFF" stroke-width="0.216" stroke-miterlimit="22.926" points="20.4,54.9 18.5,54.3 20.2,49.4 
	22.1,50.1 "/>
<polygon fill-rule="evenodd" clip-rule="evenodd" fill="#FFFFFF" points="14.8,52.6 13.1,51.7 15.8,47.3 17.4,48.2 "/>
<polygon fill="none" stroke="#FFFFFF" stroke-width="0.216" stroke-miterlimit="22.926" points="14.8,52.6 13.1,51.7 15.8,47.3 
	17.4,48.2 "/>
<polygon fill-rule="evenodd" clip-rule="evenodd" fill="#FFFFFF" points="9.3,48.9 8.1,47.7 11.8,44 13,45.2 "/>
<polygon fill="none" stroke="#FFFFFF" stroke-width="0.216" stroke-miterlimit="22.926" points="9.3,48.9 8.1,47.7 11.8,44 13,45.2 
	"/>
<polygon fill-rule="evenodd" clip-rule="evenodd" fill="#FFFFFF" points="5.3,44.3 4.4,43 8.8,40.2 9.7,41.6 "/>
<polygon fill="none" stroke="#FFFFFF" stroke-width="0.216" stroke-miterlimit="22.926" points="5.3,44.3 4.4,43 8.8,40.2 9.7,41.6 
	"/>
<polygon fill-rule="evenodd" clip-rule="evenodd" fill="#FFFFFF" points="2.4,39.3 1.8,37.9 6.7,36.1 7.3,37.4 "/>
<polygon fill="none" stroke="#FFFFFF" stroke-width="0.216" stroke-miterlimit="22.926" points="2.4,39.3 1.8,37.9 6.7,36.1 
	7.3,37.4 "/>
<polygon fill="#FFFFFF" points="0.3,31.7 0.5,33 5.6,32.3 5.4,31 "/>
<g>
	<defs>
		<rect id="SVGID_5_" y="0" width="329.7" height="56.1"/>
	</defs>
	<clipPath id="SVGID_6_">
		<use xlink:href="#SVGID_5_"  overflow="visible"/>
	</clipPath>
	<polygon clip-path="url(#SVGID_6_)" fill="none" stroke="#FFFFFF" stroke-width="0.216" stroke-miterlimit="22.926" points="
		0.5,33 0.3,31.7 5.4,31 5.6,32.3 	"/>
</g>
<polygon fill="#FFFFFF" points="0.1,26.4 5.3,27 5.4,25.9 0.2,25.2 "/>
<g>
	<defs>
		<rect id="SVGID_7_" y="0" width="329.7" height="56.1"/>
	</defs>
	<clipPath id="SVGID_8_">
		<use xlink:href="#SVGID_7_"  overflow="visible"/>
	</clipPath>
	<polygon clip-path="url(#SVGID_8_)" fill="none" stroke="#FFFFFF" stroke-width="0.216" stroke-miterlimit="22.926" points="
		0.1,26.4 0.2,25.2 5.4,25.8 5.3,27 	"/>
</g>
<polygon fill-rule="evenodd" clip-rule="evenodd" fill="#FFFFFF" points="1,20.7 1.3,19.7 6.3,21.3 6,22.3 "/>
<polygon fill="none" stroke="#FFFFFF" stroke-width="0.216" stroke-miterlimit="22.926" points="1,20.7 1.3,19.7 6.3,21.3 6,22.3 
	"/>
<polygon fill-rule="evenodd" clip-rule="evenodd" fill="#FFFFFF" points="3.5,14.6 4,13.7 8.4,16.5 7.9,17.3 "/>
<polygon fill="none" stroke="#FFFFFF" stroke-width="0.216" stroke-miterlimit="22.926" points="3.5,14.6 4,13.7 8.4,16.5 7.9,17.3 
	"/>
<polygon fill-rule="evenodd" clip-rule="evenodd" fill="#FFFFFF" points="6.8,9.8 7.4,9.2 11.1,12.8 10.6,13.4 "/>
<polygon fill="none" stroke="#FFFFFF" stroke-width="0.216" stroke-miterlimit="22.926" points="6.8,9.8 7.4,9.2 11.1,12.8 
	10.6,13.4 "/>
<polygon fill-rule="evenodd" clip-rule="evenodd" fill="#FFFFFF" points="11.5,5.5 12.1,5.1 14.9,9.4 14.3,9.8 "/>
<polygon fill="none" stroke="#FFFFFF" stroke-width="0.216" stroke-miterlimit="22.926" points="11.5,5.5 12.1,5.1 14.9,9.4 
	14.3,9.8 "/>
<polygon fill-rule="evenodd" clip-rule="evenodd" fill="#FFFFFF" points="16.8,2.4 17.2,2.2 19.1,7.1 18.6,7.3 "/>
<polygon fill="none" stroke="#FFFFFF" stroke-width="0.216" stroke-miterlimit="22.926" points="16.8,2.4 17.2,2.2 19.1,7.1 
	18.6,7.3 "/>
<polygon fill-rule="evenodd" clip-rule="evenodd" fill="#FFFFFF" points="22.8,0.6 23.2,0.5 23.9,5.7 23.5,5.7 "/>
<polygon fill="none" stroke="#FFFFFF" stroke-width="0.216" stroke-miterlimit="22.926" points="22.8,0.6 23.2,0.5 23.9,5.7 
	23.5,5.7 "/>
<polygon fill="#FFFFFF" points="28.8,0.1 28.4,5.3 28.7,5.3 29.1,0.1 "/>
<polygon fill="none" stroke="#FFFFFF" stroke-width="0.216" stroke-miterlimit="22.926" points="28.8,0.1 29.1,0.1 28.7,5.3 
	28.4,5.3 "/>
<polygon fill-rule="evenodd" clip-rule="evenodd" fill="#FFFFFF" points="56,29.8 55.6,32.8 50.4,32.2 50.8,29.2 "/>
<polygon fill="none" stroke="#FFFFFF" stroke-width="0.216" stroke-miterlimit="22.926" points="56,29.8 55.6,32.8 50.4,32.2 
	50.8,29.2 "/>
<polygon fill-rule="evenodd" clip-rule="evenodd" fill="#FFFFFF" points="46,18.3 46.9,20.3 43.5,21.9 42.6,19.9 "/>
<polygon fill="none" stroke="#FFFFFF" stroke-width="0.216" stroke-miterlimit="22.926" points="46,18.3 46.9,20.3 43.5,21.9 
	42.6,19.9 "/>
<polygon fill-rule="evenodd" clip-rule="evenodd" fill="#FFFFFF" points="47.7,22.5 48.1,24.5 44.4,25.3 44,23.2 "/>
<polygon fill="none" stroke="#FFFFFF" stroke-width="0.216" stroke-miterlimit="22.926" points="47.7,22.5 48.1,24.5 44.4,25.3 
	44,23.2 "/>
<polygon fill-rule="evenodd" clip-rule="evenodd" fill="#FFFFFF" points="48.4,27 48.4,28.9 44.7,28.9 44.6,27 "/>
<polygon fill="none" stroke="#FFFFFF" stroke-width="0.216" stroke-miterlimit="22.926" points="48.4,27 48.4,28.9 44.7,28.9 
	44.6,27 "/>
<polygon fill-rule="evenodd" clip-rule="evenodd" fill="#FFFFFF" points="48.2,31.6 47.8,33.4 44.1,32.5 44.5,30.7 "/>
<polygon fill="none" stroke="#FFFFFF" stroke-width="0.216" stroke-miterlimit="22.926" points="48.2,31.6 47.8,33.4 44.1,32.5 
	44.5,30.7 "/>
<polygon fill-rule="evenodd" clip-rule="evenodd" fill="#FFFFFF" points="46.9,35.8 46.2,37.4 42.7,35.8 43.5,34.2 "/>
<polygon fill="none" stroke="#FFFFFF" stroke-width="0.216" stroke-miterlimit="22.926" points="46.9,35.8 46.2,37.4 42.7,35.8 
	43.5,34.2 "/>
<polygon fill-rule="evenodd" clip-rule="evenodd" fill="#FFFFFF" points="44.6,40 43.5,41.3 40.6,38.9 41.7,37.6 "/>
<polygon fill="none" stroke="#FFFFFF" stroke-width="0.216" stroke-miterlimit="22.926" points="44.6,40 43.5,41.3 40.6,38.9 
	41.7,37.6 "/>
<polygon fill-rule="evenodd" clip-rule="evenodd" fill="#FFFFFF" points="41.7,43.2 40.5,44.1 38.1,41.2 39.4,40.2 "/>
<polygon fill="none" stroke="#FFFFFF" stroke-width="0.216" stroke-miterlimit="22.926" points="41.7,43.2 40.5,44.1 38.1,41.2 
	39.4,40.2 "/>
<polygon fill-rule="evenodd" clip-rule="evenodd" fill="#FFFFFF" points="37.9,45.9 36.7,46.5 35,43.1 36.3,42.5 "/>
<polygon fill="none" stroke="#FFFFFF" stroke-width="0.216" stroke-miterlimit="22.926" points="37.9,45.9 36.7,46.5 35,43.1 
	36.3,42.5 "/>
<polygon fill-rule="evenodd" clip-rule="evenodd" fill="#FFFFFF" points="33.9,47.6 32.5,47.9 31.7,44.2 33,43.9 "/>
<polygon fill="none" stroke="#FFFFFF" stroke-width="0.216" stroke-miterlimit="22.926" points="33.9,47.6 32.5,47.9 31.7,44.2 
	33,43.9 "/>
<polygon fill-rule="evenodd" clip-rule="evenodd" fill="#FFFFFF" points="29.1,48.5 27.9,48.5 27.9,44.7 29.1,44.7 "/>
<polygon fill="none" stroke="#FFFFFF" stroke-width="0.216" stroke-miterlimit="22.926" points="29.1,48.5 27.9,48.5 27.9,44.7 
	29.1,44.7 "/>
<polygon fill-rule="evenodd" clip-rule="evenodd" fill="#FFFFFF" points="24.7,48.2 23.6,48 24.4,44.3 25.6,44.5 "/>
<polygon fill="none" stroke="#FFFFFF" stroke-width="0.216" stroke-miterlimit="22.926" points="24.7,48.2 23.6,48 24.4,44.3 
	25.6,44.5 "/>
<polygon fill-rule="evenodd" clip-rule="evenodd" fill="#FFFFFF" points="20.6,47 19.6,46.7 21.2,43.2 22.1,43.6 "/>
<polygon fill="none" stroke="#FFFFFF" stroke-width="0.216" stroke-miterlimit="22.926" points="20.6,47 19.6,46.7 21.2,43.2 
	22.1,43.6 "/>
<polygon fill-rule="evenodd" clip-rule="evenodd" fill="#FFFFFF" points="16.4,44.8 15.6,44.2 17.9,41.2 18.7,41.8 "/>
<polygon fill="none" stroke="#FFFFFF" stroke-width="0.216" stroke-miterlimit="22.926" points="16.4,44.8 15.6,44.2 17.9,41.2 
	18.7,41.8 "/>
<polygon fill-rule="evenodd" clip-rule="evenodd" fill="#FFFFFF" points="12.8,41.6 12.2,40.9 15.2,38.6 15.7,39.3 "/>
<polygon fill="none" stroke="#FFFFFF" stroke-width="0.216" stroke-miterlimit="22.926" points="12.8,41.6 12.2,40.9 15.2,38.6 
	15.7,39.3 "/>
<polygon fill-rule="evenodd" clip-rule="evenodd" fill="#FFFFFF" points="10.3,38.2 9.9,37.4 13.3,35.8 13.7,36.4 "/>
<polygon fill="none" stroke="#FFFFFF" stroke-width="0.216" stroke-miterlimit="22.926" points="10.3,38.2 9.9,37.4 13.3,35.8 
	13.7,36.4 "/>
<polygon fill-rule="evenodd" clip-rule="evenodd" fill="#FFFFFF" points="8.4,33.7 8.3,33 11.9,32.2 12.1,32.9 "/>
<polygon fill="none" stroke="#FFFFFF" stroke-width="0.216" stroke-miterlimit="22.926" points="8.4,33.7 8.3,33 11.9,32.2 
	12.1,32.9 "/>
<polygon fill="#FFFFFF" points="7.6,29 7.7,29.5 11.4,29.4 11.4,28.9 "/>
<polygon fill="none" stroke="#FFFFFF" stroke-width="0.216" stroke-miterlimit="22.926" points="7.7,29.5 7.6,29 11.4,28.9 
	11.4,29.4 "/>
<polygon fill-rule="evenodd" clip-rule="evenodd" fill="#FFFFFF" points="7.8,24.9 7.9,24.5 11.6,25.2 11.6,25.7 "/>
<polygon fill="none" stroke="#FFFFFF" stroke-width="0.216" stroke-miterlimit="22.926" points="7.8,24.9 7.9,24.5 11.6,25.2 
	11.6,25.7 "/>
<polygon fill-rule="evenodd" clip-rule="evenodd" fill="#FFFFFF" points="9,20.7 9.1,20.3 12.6,21.8 12.4,22.2 "/>
<polygon fill="none" stroke="#FFFFFF" stroke-width="0.216" stroke-miterlimit="22.926" points="9,20.7 9.1,20.3 12.6,21.8 
	12.4,22.2 "/>
<polygon fill-rule="evenodd" clip-rule="evenodd" fill="#FFFFFF" points="11.1,16.6 11.3,16.3 14.3,18.6 14.1,18.8 "/>
<polygon fill="none" stroke="#FFFFFF" stroke-width="0.216" stroke-miterlimit="22.926" points="11.1,16.6 11.3,16.3 14.3,18.6 
	14.1,18.8 "/>
<polygon fill-rule="evenodd" clip-rule="evenodd" fill="#FFFFFF" points="14,13.2 14.2,13.1 16.7,15.9 16.5,16.1 "/>
<polygon fill="none" stroke="#FFFFFF" stroke-width="0.216" stroke-miterlimit="22.926" points="14,13.2 14.2,13.1 16.7,15.9 
	16.5,16.1 "/>
<polygon fill-rule="evenodd" clip-rule="evenodd" fill="#FFFFFF" points="43.4,14.6 44.7,16.3 41.8,18.7 40.4,16.9 "/>
<polygon fill="none" stroke="#FFFFFF" stroke-width="0.216" stroke-miterlimit="22.926" points="43.4,14.6 44.7,16.3 41.8,18.7 
	40.4,16.9 "/>
<polygon fill-rule="evenodd" clip-rule="evenodd" fill="#FFFFFF" points="32.4,13.4 33.9,13.9 32.9,16.6 31.4,16 "/>
<polygon fill="none" stroke="#FFFFFF" stroke-width="0.216" stroke-miterlimit="22.926" points="32.4,13.4 33.9,13.9 32.9,16.6 
	31.4,16 "/>
<polygon fill-rule="evenodd" clip-rule="evenodd" fill="#FFFFFF" points="35.5,14.6 36.8,15.5 35.2,17.9 33.9,17.1 "/>
<polygon fill="none" stroke="#FFFFFF" stroke-width="0.216" stroke-miterlimit="22.926" points="35.5,14.6 36.8,15.5 35.2,17.9 
	33.9,17.1 "/>
<polygon fill-rule="evenodd" clip-rule="evenodd" fill="#FFFFFF" points="38.3,16.7 39.3,17.7 37.3,19.7 36.3,18.7 "/>
<polygon fill="none" stroke="#FFFFFF" stroke-width="0.216" stroke-miterlimit="22.926" points="38.3,16.7 39.3,17.7 37.3,19.7 
	36.3,18.7 "/>
<polygon fill-rule="evenodd" clip-rule="evenodd" fill="#FFFFFF" points="40.6,19.2 41.3,20.4 38.9,21.9 38.1,20.7 "/>
<polygon fill="none" stroke="#FFFFFF" stroke-width="0.216" stroke-miterlimit="22.926" points="40.6,19.2 41.3,20.4 38.9,21.9 
	38.1,20.7 "/>
<polygon fill-rule="evenodd" clip-rule="evenodd" fill="#FFFFFF" points="42.2,22.2 42.6,23.4 39.9,24.3 39.5,23.1 "/>
<polygon fill="none" stroke="#FFFFFF" stroke-width="0.216" stroke-miterlimit="22.926" points="42.2,22.2 42.6,23.4 39.9,24.3 
	39.5,23.1 "/>
<polygon fill-rule="evenodd" clip-rule="evenodd" fill="#FFFFFF" points="43.2,25.6 43.3,26.9 40.5,27.1 40.3,25.9 "/>
<polygon fill="none" stroke="#FFFFFF" stroke-width="0.216" stroke-miterlimit="22.926" points="43.2,25.6 43.3,26.9 40.5,27.1 
	40.3,25.9 "/>
<polygon fill-rule="evenodd" clip-rule="evenodd" fill="#FFFFFF" points="43.3,28.8 43.2,29.9 40.4,29.7 40.5,28.5 "/>
<polygon fill="none" stroke="#FFFFFF" stroke-width="0.216" stroke-miterlimit="22.926" points="43.3,28.8 43.2,29.9 40.4,29.7 
	40.5,28.5 "/>
<polygon fill-rule="evenodd" clip-rule="evenodd" fill="#FFFFFF" points="42.7,32.2 42.4,33.3 39.7,32.3 40.1,31.3 "/>
<polygon fill="none" stroke="#FFFFFF" stroke-width="0.216" stroke-miterlimit="22.926" points="42.7,32.2 42.4,33.3 39.7,32.3 
	40.1,31.3 "/>
<polygon fill-rule="evenodd" clip-rule="evenodd" fill="#FFFFFF" points="41.5,35.3 41,36.2 38.6,34.7 39.1,33.8 "/>
<polygon fill="none" stroke="#FFFFFF" stroke-width="0.216" stroke-miterlimit="22.926" points="41.5,35.3 41,36.2 38.6,34.7 
	39.1,33.8 "/>
<polygon fill-rule="evenodd" clip-rule="evenodd" fill="#FFFFFF" points="39.4,38.3 38.7,39 36.7,36.9 37.4,36.2 "/>
<polygon fill="none" stroke="#FFFFFF" stroke-width="0.216" stroke-miterlimit="22.926" points="39.4,38.3 38.7,39 36.7,36.9 
	37.4,36.2 "/>
<rect x="35.4" y="38.1" transform="matrix(0.8476 -0.5306 0.5306 0.8476 -15.5138 25.0208)" fill-rule="evenodd" clip-rule="evenodd" fill="#FFFFFF" width="0.9" height="2.8"/>
<rect x="35.4" y="38.1" transform="matrix(0.8476 -0.5306 0.5306 0.8476 -15.5138 25.0208)" fill="none" stroke="#FFFFFF" stroke-width="0.216" stroke-miterlimit="22.926" width="0.9" height="2.8"/>
<polygon fill-rule="evenodd" clip-rule="evenodd" fill="#FFFFFF" points="34.2,42.1 33.4,42.4 32.4,39.7 33.1,39.4 "/>
<polygon fill="none" stroke="#FFFFFF" stroke-width="0.216" stroke-miterlimit="22.926" points="34.2,42.1 33.4,42.4 32.4,39.7 
	33.1,39.4 "/>
<polygon fill-rule="evenodd" clip-rule="evenodd" fill="#FFFFFF" points="30.7,43.1 30,43.2 29.6,40.4 30.3,40.3 "/>
<polygon fill="none" stroke="#FFFFFF" stroke-width="0.216" stroke-miterlimit="22.926" points="30.7,43.1 30,43.2 29.6,40.4 
	30.3,40.3 "/>
<polygon fill-rule="evenodd" clip-rule="evenodd" fill="#FFFFFF" points="27.1,43.3 26.5,43.3 26.8,40.4 27.5,40.5 "/>
<polygon fill="none" stroke="#FFFFFF" stroke-width="0.216" stroke-miterlimit="22.926" points="27.1,43.3 26.5,43.3 26.8,40.4 
	27.5,40.5 "/>
<polygon fill-rule="evenodd" clip-rule="evenodd" fill="#FFFFFF" points="24,42.8 23.4,42.6 24.3,39.9 24.9,40.1 "/>
<polygon fill="none" stroke="#FFFFFF" stroke-width="0.216" stroke-miterlimit="22.926" points="24,42.8 23.4,42.6 24.3,39.9 
	24.9,40.1 "/>
<polygon fill-rule="evenodd" clip-rule="evenodd" fill="#FFFFFF" points="20.7,41.4 20.2,41.2 21.7,38.8 22.2,39.1 "/>
<polygon fill="none" stroke="#FFFFFF" stroke-width="0.216" stroke-miterlimit="22.926" points="20.7,41.4 20.2,41.2 21.7,38.8 
	22.2,39.1 "/>
<polygon fill-rule="evenodd" clip-rule="evenodd" fill="#FFFFFF" points="18,39.6 17.7,39.4 19.7,37.3 20,37.6 "/>
<polygon fill="none" stroke="#FFFFFF" stroke-width="0.216" stroke-miterlimit="22.926" points="18,39.6 17.7,39.4 19.7,37.3 
	20,37.6 "/>
<polygon fill-rule="evenodd" clip-rule="evenodd" fill="#FFFFFF" points="15.7,37.1 15.5,36.8 17.8,35.2 18,35.5 "/>
<polygon fill="none" stroke="#FFFFFF" stroke-width="0.216" stroke-miterlimit="22.926" points="15.7,37.1 15.5,36.8 17.8,35.2 
	18,35.5 "/>
<polygon fill-rule="evenodd" clip-rule="evenodd" fill="#FFFFFF" points="14,34.2 13.9,33.9 16.5,32.9 16.7,33.2 "/>
<polygon fill="none" stroke="#FFFFFF" stroke-width="0.216" stroke-miterlimit="22.926" points="14,34.2 13.9,33.9 16.5,32.9 
	16.7,33.2 "/>
<polygon fill="#FFFFFF" points="12.9,30.7 12.9,30.9 15.8,30.5 15.7,30.3 "/>
<polygon fill="none" stroke="#FFFFFF" stroke-width="0.216" stroke-miterlimit="22.926" points="12.9,30.9 12.9,30.7 15.7,30.3 
	15.8,30.5 "/>
<polygon fill="#FFFFFF" points="12.7,27.6 15.5,27.8 15.5,27.7 12.7,27.5 "/>
<polygon fill="none" stroke="#FFFFFF" stroke-width="0.216" stroke-miterlimit="22.926" points="12.7,27.6 12.7,27.5 15.5,27.7 
	15.5,27.8 "/>
<polygon fill-rule="evenodd" clip-rule="evenodd" fill="#FFFFFF" points="29,12.7 30.6,13 30.3,15.8 28.6,15.6 "/>
<polygon fill="none" stroke="#FFFFFF" stroke-width="0.216" stroke-miterlimit="22.926" points="29,12.7 30.6,13 30.3,15.8 
	28.6,15.6 "/>
<polygon fill-rule="evenodd" clip-rule="evenodd" fill="#FFFFFF" points="22.7,18.2 23.8,17.7 24.6,19.6 23.6,20 "/>
<polygon fill="none" stroke="#FFFFFF" stroke-width="0.216" stroke-miterlimit="22.926" points="22.7,18.2 23.8,17.7 24.6,19.6 
	23.6,20 "/>
<polygon fill-rule="evenodd" clip-rule="evenodd" fill="#FFFFFF" points="25,17.3 26,17 26.5,19 25.4,19.3 "/>
<polygon fill="none" stroke="#FFFFFF" stroke-width="0.216" stroke-miterlimit="22.926" points="25,17.3 26,17 26.5,19 25.4,19.3 
	"/>
<polygon fill-rule="evenodd" clip-rule="evenodd" fill="#FFFFFF" points="27.5,16.8 28.5,16.8 28.5,18.9 27.4,18.9 "/>
<polygon fill="none" stroke="#FFFFFF" stroke-width="0.216" stroke-miterlimit="22.926" points="27.5,16.8 28.5,16.8 28.5,18.9 
	27.4,18.9 "/>
<polygon fill-rule="evenodd" clip-rule="evenodd" fill="#FFFFFF" points="29.9,17 31,17.2 30.5,19.2 29.5,19 "/>
<polygon fill="none" stroke="#FFFFFF" stroke-width="0.216" stroke-miterlimit="22.926" points="29.9,17 31,17.2 30.5,19.2 29.5,19 
	"/>
<polygon fill-rule="evenodd" clip-rule="evenodd" fill="#FFFFFF" points="32.3,17.6 33.2,18.1 32.3,19.9 31.4,19.5 "/>
<polygon fill="none" stroke="#FFFFFF" stroke-width="0.216" stroke-miterlimit="22.926" points="32.3,17.6 33.2,18.1 32.3,19.9 
	31.4,19.5 "/>
<polygon fill-rule="evenodd" clip-rule="evenodd" fill="#FFFFFF" points="34.6,19 35.3,19.5 34,21.1 33.3,20.5 "/>
<polygon fill="none" stroke="#FFFFFF" stroke-width="0.216" stroke-miterlimit="22.926" points="34.6,19 35.3,19.5 34,21.1 
	33.3,20.5 "/>
<polygon fill-rule="evenodd" clip-rule="evenodd" fill="#FFFFFF" points="36.4,20.5 36.9,21.2 35.3,22.5 34.8,21.8 "/>
<polygon fill="none" stroke="#FFFFFF" stroke-width="0.216" stroke-miterlimit="22.926" points="36.4,20.5 36.9,21.2 35.3,22.5 
	34.8,21.8 "/>
<polygon fill-rule="evenodd" clip-rule="evenodd" fill="#FFFFFF" points="37.9,22.6 38.2,23.3 36.3,24.2 36,23.5 "/>
<polygon fill="none" stroke="#FFFFFF" stroke-width="0.216" stroke-miterlimit="22.926" points="37.9,22.6 38.2,23.3 36.3,24.2 
	36,23.5 "/>
<polygon fill-rule="evenodd" clip-rule="evenodd" fill="#FFFFFF" points="38.8,24.8 39,25.5 37,26 36.8,25.3 "/>
<polygon fill="none" stroke="#FFFFFF" stroke-width="0.216" stroke-miterlimit="22.926" points="38.8,24.8 39,25.5 37,26 36.8,25.3 
	"/>
<polygon fill="#FFFFFF" points="37.1,27.4 37.1,28.1 39.2,28.1 39.2,27.4 "/>
<polygon fill="none" stroke="#FFFFFF" stroke-width="0.216" stroke-miterlimit="22.926" points="39.2,27.4 39.2,28.1 37.1,28.1 
	37.1,27.4 "/>
<polygon fill-rule="evenodd" clip-rule="evenodd" fill="#FFFFFF" points="39.1,29.9 39,30.5 37,30 37.1,29.4 "/>
<polygon fill="none" stroke="#FFFFFF" stroke-width="0.216" stroke-miterlimit="22.926" points="39.1,29.9 39,30.5 37,30 37.1,29.4 
	"/>
<polygon fill-rule="evenodd" clip-rule="evenodd" fill="#FFFFFF" points="38.5,32.1 38.3,32.6 36.3,31.8 36.6,31.3 "/>
<polygon fill="none" stroke="#FFFFFF" stroke-width="0.216" stroke-miterlimit="22.926" points="38.5,32.1 38.3,32.6 36.3,31.8 
	36.6,31.3 "/>
<polygon fill-rule="evenodd" clip-rule="evenodd" fill="#FFFFFF" points="37.2,34.5 36.9,34.9 35.3,33.6 35.6,33.2 "/>
<polygon fill="none" stroke="#FFFFFF" stroke-width="0.216" stroke-miterlimit="22.926" points="37.2,34.5 36.9,34.9 35.3,33.6 
	35.6,33.2 "/>
<polygon fill-rule="evenodd" clip-rule="evenodd" fill="#FFFFFF" points="35.5,36.4 35.1,36.8 33.8,35.1 34.2,34.8 "/>
<polygon fill="none" stroke="#FFFFFF" stroke-width="0.216" stroke-miterlimit="22.926" points="35.5,36.4 35.1,36.8 33.8,35.1 
	34.2,34.8 "/>
<polygon fill-rule="evenodd" clip-rule="evenodd" fill="#FFFFFF" points="33.6,37.8 33.2,38 32.3,36.1 32.6,35.9 "/>
<polygon fill="none" stroke="#FFFFFF" stroke-width="0.216" stroke-miterlimit="22.926" points="33.6,37.8 33.2,38 32.3,36.1 
	32.6,35.9 "/>
<polygon fill="#FFFFFF" points="30.3,36.9 30.8,38.9 31.1,38.8 30.7,36.8 "/>
<polygon fill="none" stroke="#FFFFFF" stroke-width="0.216" stroke-miterlimit="22.926" points="31.1,38.8 30.8,38.9 30.3,36.9 
	30.7,36.8 "/>
<polygon fill="#FFFFFF" points="28.4,37.2 28.5,39.3 28.8,39.3 28.8,37.1 "/>
<polygon fill="none" stroke="#FFFFFF" stroke-width="0.216" stroke-miterlimit="22.926" points="28.8,39.3 28.5,39.3 28.4,37.2 
	28.8,37.1 "/>
<polygon fill="#FFFFFF" points="26,39.1 26.3,39.1 26.7,37.1 26.5,37 "/>
<polygon fill="none" stroke="#FFFFFF" stroke-width="0.216" stroke-miterlimit="22.926" points="26.3,39.1 26,39.1 26.5,37 
	26.7,37.1 "/>
<polygon fill-rule="evenodd" clip-rule="evenodd" fill="#FFFFFF" points="23.9,38.5 23.8,38.4 24.6,36.5 24.8,36.6 "/>
<polygon fill="none" stroke="#FFFFFF" stroke-width="0.216" stroke-miterlimit="22.926" points="23.9,38.5 23.8,38.4 24.6,36.5 
	24.8,36.6 "/>
<polygon fill-rule="evenodd" clip-rule="evenodd" fill="#FFFFFF" points="21.7,37.4 21.6,37.3 22.8,35.6 23,35.7 "/>
<polygon fill="none" stroke="#FFFFFF" stroke-width="0.216" stroke-miterlimit="22.926" points="21.7,37.4 21.6,37.3 22.8,35.6 
	23,35.7 "/>
<polygon fill-rule="evenodd" clip-rule="evenodd" fill="#FFFFFF" points="19.8,35.8 19.8,35.7 21.3,34.3 21.4,34.4 "/>
<polygon fill="none" stroke="#FFFFFF" stroke-width="0.216" stroke-miterlimit="22.926" points="19.8,35.8 19.8,35.7 21.3,34.3 
	21.4,34.4 "/>
<polygon fill-rule="evenodd" clip-rule="evenodd" fill="#FFFFFF" points="20.6,19.6 21.6,18.9 22.8,20.5 21.9,21.3 "/>
<polygon fill="none" stroke="#FFFFFF" stroke-width="0.216" stroke-miterlimit="22.926" points="20.6,19.6 21.6,18.9 22.8,20.5 
	21.9,21.3 "/>
<polygon fill-rule="evenodd" clip-rule="evenodd" fill="#FFFFFF" points="20,25.7 20.3,24.8 21.7,25.4 21.5,26.2 "/>
<polygon fill="none" stroke="#FFFFFF" stroke-width="0.216" stroke-miterlimit="22.926" points="20,25.7 20.3,24.8 21.7,25.4 
	21.5,26.2 "/>
<polygon fill-rule="evenodd" clip-rule="evenodd" fill="#FFFFFF" points="20.7,24 21.2,23.3 22.5,24.1 22,24.8 "/>
<polygon fill="none" stroke="#FFFFFF" stroke-width="0.216" stroke-miterlimit="22.926" points="20.7,24 21.2,23.3 22.5,24.1 
	22,24.8 "/>
<polygon fill-rule="evenodd" clip-rule="evenodd" fill="#FFFFFF" points="21.8,22.5 22.4,21.9 23.5,23 22.9,23.5 "/>
<polygon fill="none" stroke="#FFFFFF" stroke-width="0.216" stroke-miterlimit="22.926" points="21.8,22.5 22.4,21.9 23.5,23 
	22.9,23.5 "/>
<polygon fill-rule="evenodd" clip-rule="evenodd" fill="#FFFFFF" points="23.2,21.2 23.9,20.8 24.7,22.1 24,22.5 "/>
<polygon fill="none" stroke="#FFFFFF" stroke-width="0.216" stroke-miterlimit="22.926" points="23.2,21.2 23.9,20.8 24.7,22.1 
	24,22.5 "/>
<polygon fill-rule="evenodd" clip-rule="evenodd" fill="#FFFFFF" points="24.8,20.3 25.5,20.1 26,21.5 25.3,21.8 "/>
<polygon fill="none" stroke="#FFFFFF" stroke-width="0.216" stroke-miterlimit="22.926" points="24.8,20.3 25.5,20.1 26,21.5 
	25.3,21.8 "/>
<polygon fill="#FFFFFF" points="26.7,19.8 26.9,21.3 27.6,21.2 27.4,19.7 "/>
<polygon fill="none" stroke="#FFFFFF" stroke-width="0.216" stroke-miterlimit="22.926" points="26.7,19.8 27.4,19.7 27.6,21.2 
	26.9,21.3 "/>
<polygon fill="#FFFFFF" points="28.3,21.2 28.9,21.3 29.1,19.7 28.4,19.7 "/>
<polygon fill="none" stroke="#FFFFFF" stroke-width="0.216" stroke-miterlimit="22.926" points="28.4,19.7 29.1,19.7 28.9,21.3 
	28.3,21.2 "/>
<polygon fill-rule="evenodd" clip-rule="evenodd" fill="#FFFFFF" points="30.3,20 30.9,20.2 30.4,21.6 29.8,21.5 "/>
<polygon fill="none" stroke="#FFFFFF" stroke-width="0.216" stroke-miterlimit="22.926" points="30.3,20 30.9,20.2 30.4,21.6 
	29.8,21.5 "/>
<rect x="31.6" y="20.7" transform="matrix(-0.857 -0.5153 0.5153 -0.857 48.0547 56.3019)" fill-rule="evenodd" clip-rule="evenodd" fill="#FFFFFF" width="0.5" height="1.5"/>
<rect x="31.6" y="20.7" transform="matrix(-0.857 -0.5153 0.5153 -0.857 48.0547 56.3019)" fill="none" stroke="#FFFFFF" stroke-width="0.216" stroke-miterlimit="22.926" width="0.5" height="1.5"/>
<polygon fill-rule="evenodd" clip-rule="evenodd" fill="#FFFFFF" points="33.6,21.8 34,22.2 32.9,23.3 32.5,22.9 "/>
<polygon fill="none" stroke="#FFFFFF" stroke-width="0.216" stroke-miterlimit="22.926" points="33.6,21.8 34,22.2 32.9,23.3 
	32.5,22.9 "/>
<polygon fill-rule="evenodd" clip-rule="evenodd" fill="#FFFFFF" points="34.8,23.2 35.1,23.6 33.8,24.4 33.5,24 "/>
<polygon fill="none" stroke="#FFFFFF" stroke-width="0.216" stroke-miterlimit="22.926" points="34.8,23.2 35.1,23.6 33.8,24.4 
	33.5,24 "/>
<polygon fill="#FFFFFF" points="34.2,25.3 34.4,25.7 35.9,25.1 35.7,24.7 "/>
<polygon fill="none" stroke="#FFFFFF" stroke-width="0.216" stroke-miterlimit="22.926" points="35.7,24.7 35.9,25.1 34.4,25.7 
	34.2,25.3 "/>
<polygon fill="#FFFFFF" points="34.7,26.8 34.8,27.2 36.3,27 36.3,26.6 "/>
<polygon fill="none" stroke="#FFFFFF" stroke-width="0.216" stroke-miterlimit="22.926" points="36.3,26.6 36.3,27 34.8,27.2 
	34.7,26.8 "/>
<polygon fill="#FFFFFF" points="34.8,28.7 36.3,28.9 36.4,28.5 34.8,28.3 "/>
<polygon fill="none" stroke="#FFFFFF" stroke-width="0.216" stroke-miterlimit="22.926" points="36.4,28.5 36.3,28.9 34.8,28.7 
	34.8,28.3 "/>
<polygon fill="#FFFFFF" points="34.5,30.1 36,30.5 36.1,30.2 34.6,29.7 "/>
<polygon fill="none" stroke="#FFFFFF" stroke-width="0.216" stroke-miterlimit="22.926" points="36.1,30.2 36,30.5 34.5,30.1 
	34.6,29.7 "/>
<polygon fill-rule="evenodd" clip-rule="evenodd" fill="#FFFFFF" points="35.3,32.1 35.2,32.3 33.9,31.5 34,31.2 "/>
<polygon fill="none" stroke="#FFFFFF" stroke-width="0.216" stroke-miterlimit="22.926" points="35.3,32.1 35.2,32.3 33.9,31.5 
	34,31.2 "/>
<polygon fill-rule="evenodd" clip-rule="evenodd" fill="#FFFFFF" points="34.3,33.5 34.2,33.7 33.1,32.6 33.2,32.4 "/>
<polygon fill="none" stroke="#FFFFFF" stroke-width="0.216" stroke-miterlimit="22.926" points="34.3,33.5 34.2,33.7 33.1,32.6 
	33.2,32.4 "/>
<polygon fill-rule="evenodd" clip-rule="evenodd" fill="#FFFFFF" points="33,34.8 32.8,34.9 31.9,33.6 32.1,33.5 "/>
<polygon fill="none" stroke="#FFFFFF" stroke-width="0.216" stroke-miterlimit="22.926" points="33,34.8 32.8,34.9 31.9,33.6 
	32.1,33.5 "/>
<polygon fill="#FFFFFF" points="30.7,34.3 31.2,35.8 31.4,35.7 30.8,34.2 "/>
<polygon fill="none" stroke="#FFFFFF" stroke-width="0.216" stroke-miterlimit="22.926" points="31.4,35.7 31.2,35.8 30.7,34.3 
	30.8,34.2 "/>
<polygon fill="#FFFFFF" points="29.2,34.8 29.5,36.3 29.5,36.3 29.3,34.7 "/>
<polygon fill="none" stroke="#FFFFFF" stroke-width="0.216" stroke-miterlimit="22.926" points="29.5,36.3 29.5,36.3 29.2,34.8 
	29.3,34.7 "/>
<polygon fill="#FFFFFF" points="27.8,34.9 27.7,36.4 27.8,36.4 27.9,34.9 "/>
<polygon fill="none" stroke="#FFFFFF" stroke-width="0.216" stroke-miterlimit="22.926" points="27.8,36.4 27.7,36.4 27.8,34.9 
	27.9,34.9 "/>
<polygon fill-rule="evenodd" clip-rule="evenodd" fill="#FFFFFF" points="19.7,27.5 19.8,26.6 21.3,26.8 21.2,27.7 "/>
<polygon fill="none" stroke="#FFFFFF" stroke-width="0.216" stroke-miterlimit="22.926" points="19.7,27.5 19.8,26.6 21.3,26.8 
	21.2,27.7 "/>
<g>
	<defs>
		<rect id="SVGID_9_" y="0" width="329.7" height="56.1"/>
	</defs>
	<clipPath id="SVGID_10_">
		<use xlink:href="#SVGID_9_"  overflow="visible"/>
	</clipPath>
	<path clip-path="url(#SVGID_10_)" fill-rule="evenodd" clip-rule="evenodd" fill="#FFFFFF" d="M102.2,27.7c0,0.7-0.6,1.1-1.7,1.2
		l-0.2,0H100c-1,0-1.7-0.2-2-0.7l-12.6-18l-12.7,18c-0.3,0.4-1,0.7-2,0.7h-0.3h-0.2c-1.1,0-1.7-0.4-1.7-1.2c0-0.4,0.1-0.8,0.4-1.2
		L82.8,7c0.2-0.3,0.4-0.6,0.6-0.7c0.5-0.5,1.2-0.7,1.9-0.7c1,0,1.8,0.5,2.5,1.4l13.9,19.6C102,27,102.2,27.3,102.2,27.7"/>
	<path clip-path="url(#SVGID_10_)" fill="none" stroke="#FFFFFF" stroke-width="0.216" stroke-miterlimit="22.926" d="M102.2,27.7
		c0,0.7-0.6,1.1-1.7,1.2l-0.2,0H100c-1,0-1.7-0.2-2-0.7l-12.6-18l-12.7,18c-0.3,0.4-1,0.7-2,0.7h-0.3h-0.2c-1.1,0-1.7-0.4-1.7-1.2
		c0-0.4,0.1-0.8,0.4-1.2L82.8,7c0.2-0.3,0.4-0.6,0.6-0.7c0.5-0.5,1.2-0.7,1.9-0.7c1,0,1.8,0.5,2.5,1.4l13.9,19.6
		C102,27,102.2,27.3,102.2,27.7z"/>
	<path clip-path="url(#SVGID_10_)" fill-rule="evenodd" clip-rule="evenodd" fill="#FFFFFF" d="M136.8,26.8c0,0.2,0.1,0.4,0.1,0.6
		c0,0.6-0.2,1.1-0.6,1.5c-0.4,0.4-1,0.6-1.6,0.6c-0.7,0-1.3-0.4-1.8-1.2l-3.8-5.5h-17.9l-3.8,5.5c-0.1,0.2-0.2,0.4-0.4,0.5
		c-0.3,0.3-0.6,0.4-1,0.4c-0.8,0-1.4-0.3-1.8-0.9c-0.2-0.3-0.3-0.5-0.3-0.7c0-0.2,0-0.3,0.1-0.4l13.4-20.6c0.6-0.9,1.4-1.3,2.6-1.3
		c1.4,0,2.2,0.5,2.5,1.3L136.8,26.8z M126.6,19.3l-6.5-9.5l-6.5,9.5H126.6z"/>
	<path clip-path="url(#SVGID_10_)" fill="none" stroke="#FFFFFF" stroke-width="0.216" stroke-miterlimit="22.926" d="M136.8,26.8
		c0,0.2,0.1,0.4,0.1,0.6c0,0.6-0.2,1.1-0.6,1.5c-0.4,0.4-1,0.6-1.6,0.6c-0.7,0-1.3-0.4-1.8-1.2l-3.8-5.5h-17.9l-3.8,5.5
		c-0.1,0.2-0.2,0.4-0.4,0.5c-0.3,0.3-0.6,0.4-1,0.4c-0.8,0-1.4-0.3-1.8-0.9c-0.2-0.3-0.3-0.5-0.3-0.7c0-0.2,0-0.3,0.1-0.4l13.4-20.6
		c0.6-0.9,1.4-1.3,2.6-1.3c1.4,0,2.2,0.5,2.5,1.3L136.8,26.8z M126.6,19.3l-6.5-9.5l-6.5,9.5H126.6z"/>
	<path clip-path="url(#SVGID_10_)" fill-rule="evenodd" clip-rule="evenodd" fill="#FFFFFF" d="M165.9,22.8c0,2.3-1.2,4-3.5,5
		c-1.7,0.8-3.8,1.1-6.5,1.1h-14.8c-1,0-1.5-0.5-1.5-1.5V27c0-1,0.5-1.5,1.5-1.5H156c3.8,0,5.7-0.8,5.7-2.5v-2.2
		c0-1.3-1.8-1.9-5.5-1.9h-14.9c-1,0-1.5-0.5-1.5-1.5v-0.5c0-1,0.5-1.5,1.5-1.5h15c3.6,0,5.5-0.7,5.5-2.1V11c0-0.9-0.8-1.5-2.3-1.8
		c-0.6-0.1-1.4-0.1-2.4-0.1l-3.5,0c-1,0-1.5-0.5-1.5-1.5l0-0.5c0-1,0.5-1.5,1.5-1.5h3.5c6,0,9,1.9,9,5.6v2.1c0,1.5-0.7,2.8-2,3.7
		c1.3,0.9,2,2.2,2,3.7V22.8z"/>
	<path clip-path="url(#SVGID_10_)" fill="none" stroke="#FFFFFF" stroke-width="0.216" stroke-miterlimit="22.926" d="M165.9,22.8
		c0,2.3-1.2,4-3.5,5c-1.7,0.8-3.8,1.1-6.5,1.1h-14.8c-1,0-1.5-0.5-1.5-1.5V27c0-1,0.5-1.5,1.5-1.5H156c3.8,0,5.7-0.8,5.7-2.5v-2.2
		c0-1.3-1.8-1.9-5.5-1.9h-14.9c-1,0-1.5-0.5-1.5-1.5v-0.5c0-1,0.5-1.5,1.5-1.5h15c3.6,0,5.5-0.7,5.5-2.1V11c0-0.9-0.8-1.5-2.3-1.8
		c-0.6-0.1-1.4-0.1-2.4-0.1l-3.5,0c-1,0-1.5-0.5-1.5-1.5l0-0.5c0-1,0.5-1.5,1.5-1.5h3.5c6,0,9,1.9,9,5.6v2.1c0,1.5-0.7,2.8-2,3.7
		c1.3,0.9,2,2.2,2,3.7V22.8z"/>
	<path clip-path="url(#SVGID_10_)" fill-rule="evenodd" clip-rule="evenodd" fill="#FFFFFF" d="M195.6,17.2l0,0.5
		c-0.1,0.9-0.6,1.4-1.5,1.4h-20.5V23c0,1.6,1.8,2.5,5.5,2.5h15c1,0,1.5,0.5,1.5,1.5v0.5c0,1-0.5,1.5-1.5,1.5h-15.2
		c-0.5,0-1.1,0-1.8-0.1c-5.2-0.5-7.7-2.4-7.7-5.7V11.6c0-2.2,1.3-3.8,3.8-4.9c1.7-0.7,3.7-1.1,6.1-1.1h4.1c1,0,1.5,0.5,1.5,1.5
		l0,0.5c0,1-0.5,1.5-1.5,1.5h-4.3l-1.2,0.1c-2.9,0.2-4.3,1-4.3,2.4v4.1h20.5C195.2,15.6,195.7,16.2,195.6,17.2"/>
	<path clip-path="url(#SVGID_10_)" fill="none" stroke="#FFFFFF" stroke-width="0.216" stroke-miterlimit="22.926" d="M195.6,17.2
		l0,0.5c-0.1,0.9-0.6,1.4-1.5,1.4h-20.5V23c0,1.6,1.8,2.5,5.5,2.5h15c1,0,1.5,0.5,1.5,1.5v0.5c0,1-0.5,1.5-1.5,1.5h-15.2
		c-0.5,0-1.1,0-1.8-0.1c-5.2-0.5-7.7-2.4-7.7-5.7V11.6c0-2.2,1.3-3.8,3.8-4.9c1.7-0.7,3.7-1.1,6.1-1.1h4.1c1,0,1.5,0.5,1.5,1.5
		l0,0.5c0,1-0.5,1.5-1.5,1.5h-4.3l-1.2,0.1c-2.9,0.2-4.3,1-4.3,2.4v4.1h20.5C195.2,15.6,195.7,16.2,195.6,17.2z"/>
	<path clip-path="url(#SVGID_10_)" fill-rule="evenodd" clip-rule="evenodd" fill="#FFFFFF" d="M228,14.4c0,2.3-1.2,4-3.5,5
		c-1.7,0.8-3.9,1.1-6.5,1.1l-14.8,0v6.8c0,1-0.5,1.5-1.5,1.5h-1.2c-1,0-1.5-0.5-1.5-1.5V7.1c0-1,0.5-1.5,1.5-1.5h17.7
		c2.3,0,4.3,0.3,6.1,1c2.5,0.9,3.7,2.3,3.7,4.2V14.4z M223.8,14.3v-3.2c0-1.3-1.8-2-5.5-2h-15v8h15c1.7,0,3-0.2,3.9-0.5
		C223.3,16.2,223.8,15.4,223.8,14.3"/>
	<path clip-path="url(#SVGID_10_)" fill="none" stroke="#FFFFFF" stroke-width="0.216" stroke-miterlimit="22.926" d="M228,14.4
		c0,2.3-1.2,4-3.5,5c-1.7,0.8-3.9,1.1-6.5,1.1l-14.8,0v6.8c0,1-0.5,1.5-1.5,1.5h-1.2c-1,0-1.5-0.5-1.5-1.5V7.1c0-1,0.5-1.5,1.5-1.5
		h17.7c2.3,0,4.3,0.3,6.1,1c2.5,0.9,3.7,2.3,3.7,4.2V14.4z M223.8,14.3v-3.2c0-1.3-1.8-2-5.5-2h-15v8h15c1.7,0,3-0.2,3.9-0.5
		C223.3,16.2,223.8,15.4,223.8,14.3z"/>
	<path clip-path="url(#SVGID_10_)" fill-rule="evenodd" clip-rule="evenodd" fill="#FFFFFF" d="M260.4,27.4c0,1-0.5,1.5-1.5,1.5
		h-1.2c-1,0-1.5-0.5-1.5-1.5v-8.3h-20.6v8.3c0,1-0.5,1.5-1.5,1.5h-1.3c-1,0-1.5-0.5-1.5-1.5V7.1c0-1,0.5-1.5,1.5-1.5h1.3
		c1,0,1.5,0.5,1.5,1.5v8.5h20.6V7.1c0-1,0.5-1.5,1.5-1.5h1.2c1,0,1.5,0.5,1.5,1.5L260.4,27.4z"/>
	<path clip-path="url(#SVGID_10_)" fill="none" stroke="#FFFFFF" stroke-width="0.216" stroke-miterlimit="22.926" d="M260.4,27.4
		c0,1-0.5,1.5-1.5,1.5h-1.2c-1,0-1.5-0.5-1.5-1.5v-8.3h-20.6v8.3c0,1-0.5,1.5-1.5,1.5h-1.3c-1,0-1.5-0.5-1.5-1.5V7.1
		c0-1,0.5-1.5,1.5-1.5h1.3c1,0,1.5,0.5,1.5,1.5v8.5h20.6V7.1c0-1,0.5-1.5,1.5-1.5h1.2c1,0,1.5,0.5,1.5,1.5L260.4,27.4z"/>
	<path clip-path="url(#SVGID_10_)" fill-rule="evenodd" clip-rule="evenodd" fill="#FFFFFF" d="M292.4,23.7c0,1.1-0.4,2-1.1,2.8
		c-0.5,0.5-1.4,1.1-2.6,1.7c-0.8,0.4-1.8,0.6-2.9,0.7c-0.3,0-1.4,0-3.2,0h-17.7c-1,0-1.5-0.5-1.5-1.5V7.1c0-1,0.5-1.5,1.5-1.5h1.3
		c1,0,1.5,0.5,1.5,1.5v6.8h14.8c2.6,0,4.8,0.4,6.5,1.1c2.3,1,3.5,2.7,3.5,5V23.7z M286.5,17.9c-0.8-0.3-2.1-0.5-3.9-0.5h-15v8h15
		c3.7,0,5.5-0.7,5.5-2v-3.2C288.1,19.1,287.6,18.3,286.5,17.9 M298.7,7.1c0-1-0.5-1.5-1.5-1.5H296c-1,0-1.5,0.5-1.5,1.5v20.3
		c0,1,0.5,1.5,1.5,1.5h1.3c1,0,1.5-0.5,1.5-1.5V7.1z"/>
	<path clip-path="url(#SVGID_10_)" fill="none" stroke="#FFFFFF" stroke-width="0.216" stroke-miterlimit="22.926" d="M292.4,23.7
		c0,1.1-0.4,2-1.1,2.8c-0.5,0.5-1.4,1.1-2.6,1.7c-0.8,0.4-1.8,0.6-2.9,0.7c-0.3,0-1.4,0-3.2,0h-17.7c-1,0-1.5-0.5-1.5-1.5V7.1
		c0-1,0.5-1.5,1.5-1.5h1.3c1,0,1.5,0.5,1.5,1.5v6.8h14.8c2.6,0,4.8,0.4,6.5,1.1c2.3,1,3.5,2.7,3.5,5V23.7z M286.5,17.9
		c-0.8-0.3-2.1-0.5-3.9-0.5h-15v8h15c3.7,0,5.5-0.7,5.5-2v-3.2C288.1,19.1,287.6,18.3,286.5,17.9z M298.7,7.1c0-1-0.5-1.5-1.5-1.5
		H296c-1,0-1.5,0.5-1.5,1.5v20.3c0,1,0.5,1.5,1.5,1.5h1.3c1,0,1.5-0.5,1.5-1.5V7.1z"/>
	<path clip-path="url(#SVGID_10_)" fill-rule="evenodd" clip-rule="evenodd" fill="#FFFFFF" d="M329.3,17.2l0,0.5
		c-0.1,0.9-0.6,1.4-1.5,1.4h-20.5V23c0,1.6,1.8,2.5,5.5,2.5h15c1,0,1.5,0.5,1.5,1.5l0,0.5c0,1-0.5,1.5-1.5,1.5h-15.2
		c-0.5,0-1.1,0-1.8-0.1c-5.2-0.5-7.7-2.4-7.7-5.7V11.6c0-2.2,1.3-3.8,3.8-4.9c1.7-0.7,3.7-1.1,6.1-1.1h4.1c1,0,1.5,0.5,1.5,1.5v0.5
		c0,1-0.5,1.5-1.5,1.5h-4.3l-1.2,0.1c-2.9,0.2-4.3,1-4.3,2.4v4.1h20.5C328.8,15.6,329.3,16.2,329.3,17.2"/>
	<path clip-path="url(#SVGID_10_)" fill="none" stroke="#FFFFFF" stroke-width="0.216" stroke-miterlimit="22.926" d="M329.3,17.2
		l0,0.5c-0.1,0.9-0.6,1.4-1.5,1.4h-20.5V23c0,1.6,1.8,2.5,5.5,2.5h15c1,0,1.5,0.5,1.5,1.5l0,0.5c0,1-0.5,1.5-1.5,1.5h-15.2
		c-0.5,0-1.1,0-1.8-0.1c-5.2-0.5-7.7-2.4-7.7-5.7V11.6c0-2.2,1.3-3.8,3.8-4.9c1.7-0.7,3.7-1.1,6.1-1.1h4.1c1,0,1.5,0.5,1.5,1.5v0.5
		c0,1-0.5,1.5-1.5,1.5h-4.3l-1.2,0.1c-2.9,0.2-4.3,1-4.3,2.4v4.1h20.5C328.8,15.6,329.3,16.2,329.3,17.2z"/>
	<path clip-path="url(#SVGID_10_)" fill-rule="evenodd" clip-rule="evenodd" fill="#FFFFFF" d="M102.2,27.7c0,0.7-0.6,1.1-1.7,1.2
		l-0.2,0H100c-1,0-1.7-0.2-2-0.7l-12.6-18l-12.7,18c-0.3,0.4-1,0.7-2,0.7h-0.3h-0.2c-1.1,0-1.7-0.4-1.7-1.2c0-0.4,0.1-0.8,0.4-1.2
		L82.8,7c0.2-0.3,0.4-0.6,0.6-0.7c0.5-0.5,1.2-0.7,1.9-0.7c1,0,1.8,0.5,2.5,1.4l13.9,19.6C102,27,102.2,27.3,102.2,27.7"/>
	<path clip-path="url(#SVGID_10_)" fill="none" stroke="#FFFFFF" stroke-width="0.216" stroke-miterlimit="22.926" d="M102.2,27.7
		c0,0.7-0.6,1.1-1.7,1.2l-0.2,0H100c-1,0-1.7-0.2-2-0.7l-12.6-18l-12.7,18c-0.3,0.4-1,0.7-2,0.7h-0.3h-0.2c-1.1,0-1.7-0.4-1.7-1.2
		c0-0.4,0.1-0.8,0.4-1.2L82.8,7c0.2-0.3,0.4-0.6,0.6-0.7c0.5-0.5,1.2-0.7,1.9-0.7c1,0,1.8,0.5,2.5,1.4l13.9,19.6
		C102,27,102.2,27.3,102.2,27.7z"/>
	<path clip-path="url(#SVGID_10_)" fill-rule="evenodd" clip-rule="evenodd" fill="#FFFFFF" d="M136.8,26.8c0,0.2,0.1,0.4,0.1,0.6
		c0,0.6-0.2,1.1-0.6,1.5c-0.4,0.4-1,0.6-1.6,0.6c-0.7,0-1.3-0.4-1.8-1.2l-3.8-5.5h-17.9l-3.8,5.5c-0.1,0.2-0.2,0.4-0.4,0.5
		c-0.3,0.3-0.6,0.4-1,0.4c-0.8,0-1.4-0.3-1.8-0.9c-0.2-0.3-0.3-0.5-0.3-0.7c0-0.2,0-0.3,0.1-0.4l13.4-20.6c0.6-0.9,1.4-1.3,2.6-1.3
		c1.4,0,2.2,0.5,2.5,1.3L136.8,26.8z M126.6,19.3l-6.5-9.5l-6.5,9.5H126.6z"/>
	<path clip-path="url(#SVGID_10_)" fill="none" stroke="#FFFFFF" stroke-width="0.216" stroke-miterlimit="22.926" d="M136.8,26.8
		c0,0.2,0.1,0.4,0.1,0.6c0,0.6-0.2,1.1-0.6,1.5c-0.4,0.4-1,0.6-1.6,0.6c-0.7,0-1.3-0.4-1.8-1.2l-3.8-5.5h-17.9l-3.8,5.5
		c-0.1,0.2-0.2,0.4-0.4,0.5c-0.3,0.3-0.6,0.4-1,0.4c-0.8,0-1.4-0.3-1.8-0.9c-0.2-0.3-0.3-0.5-0.3-0.7c0-0.2,0-0.3,0.1-0.4l13.4-20.6
		c0.6-0.9,1.4-1.3,2.6-1.3c1.4,0,2.2,0.5,2.5,1.3L136.8,26.8z M126.6,19.3l-6.5-9.5l-6.5,9.5H126.6z"/>
	<path clip-path="url(#SVGID_10_)" fill-rule="evenodd" clip-rule="evenodd" fill="#FFFFFF" d="M165.9,22.8c0,2.3-1.2,4-3.5,5
		c-1.7,0.8-3.8,1.1-6.5,1.1h-14.8c-1,0-1.5-0.5-1.5-1.5V27c0-1,0.5-1.5,1.5-1.5H156c3.8,0,5.7-0.8,5.7-2.5v-2.2
		c0-1.3-1.8-1.9-5.5-1.9h-14.9c-1,0-1.5-0.5-1.5-1.5v-0.5c0-1,0.5-1.5,1.5-1.5h15c3.6,0,5.5-0.7,5.5-2.1V11c0-0.9-0.8-1.5-2.3-1.8
		c-0.6-0.1-1.4-0.1-2.4-0.1l-3.5,0c-1,0-1.5-0.5-1.5-1.5l0-0.5c0-1,0.5-1.5,1.5-1.5h3.5c6,0,9,1.9,9,5.6v2.1c0,1.5-0.7,2.8-2,3.7
		c1.3,0.9,2,2.2,2,3.7V22.8z"/>
	<path clip-path="url(#SVGID_10_)" fill="none" stroke="#FFFFFF" stroke-width="0.216" stroke-miterlimit="22.926" d="M165.9,22.8
		c0,2.3-1.2,4-3.5,5c-1.7,0.8-3.8,1.1-6.5,1.1h-14.8c-1,0-1.5-0.5-1.5-1.5V27c0-1,0.5-1.5,1.5-1.5H156c3.8,0,5.7-0.8,5.7-2.5v-2.2
		c0-1.3-1.8-1.9-5.5-1.9h-14.9c-1,0-1.5-0.5-1.5-1.5v-0.5c0-1,0.5-1.5,1.5-1.5h15c3.6,0,5.5-0.7,5.5-2.1V11c0-0.9-0.8-1.5-2.3-1.8
		c-0.6-0.1-1.4-0.1-2.4-0.1l-3.5,0c-1,0-1.5-0.5-1.5-1.5l0-0.5c0-1,0.5-1.5,1.5-1.5h3.5c6,0,9,1.9,9,5.6v2.1c0,1.5-0.7,2.8-2,3.7
		c1.3,0.9,2,2.2,2,3.7V22.8z"/>
	<path clip-path="url(#SVGID_10_)" fill-rule="evenodd" clip-rule="evenodd" fill="#FFFFFF" d="M195.6,17.2l0,0.5
		c-0.1,0.9-0.6,1.4-1.5,1.4h-20.5V23c0,1.6,1.8,2.5,5.5,2.5h15c1,0,1.5,0.5,1.5,1.5v0.5c0,1-0.5,1.5-1.5,1.5h-15.2
		c-0.5,0-1.1,0-1.8-0.1c-5.2-0.5-7.7-2.4-7.7-5.7V11.6c0-2.2,1.3-3.8,3.8-4.9c1.7-0.7,3.7-1.1,6.1-1.1h4.1c1,0,1.5,0.5,1.5,1.5
		l0,0.5c0,1-0.5,1.5-1.5,1.5h-4.3l-1.2,0.1c-2.9,0.2-4.3,1-4.3,2.4v4.1h20.5C195.2,15.6,195.7,16.2,195.6,17.2"/>
	<path clip-path="url(#SVGID_10_)" fill="none" stroke="#FFFFFF" stroke-width="0.216" stroke-miterlimit="22.926" d="M195.6,17.2
		l0,0.5c-0.1,0.9-0.6,1.4-1.5,1.4h-20.5V23c0,1.6,1.8,2.5,5.5,2.5h15c1,0,1.5,0.5,1.5,1.5v0.5c0,1-0.5,1.5-1.5,1.5h-15.2
		c-0.5,0-1.1,0-1.8-0.1c-5.2-0.5-7.7-2.4-7.7-5.7V11.6c0-2.2,1.3-3.8,3.8-4.9c1.7-0.7,3.7-1.1,6.1-1.1h4.1c1,0,1.5,0.5,1.5,1.5
		l0,0.5c0,1-0.5,1.5-1.5,1.5h-4.3l-1.2,0.1c-2.9,0.2-4.3,1-4.3,2.4v4.1h20.5C195.2,15.6,195.7,16.2,195.6,17.2z"/>
	<path clip-path="url(#SVGID_10_)" fill-rule="evenodd" clip-rule="evenodd" fill="#FFFFFF" d="M228,14.4c0,2.3-1.2,4-3.5,5
		c-1.7,0.8-3.9,1.1-6.5,1.1l-14.8,0v6.8c0,1-0.5,1.5-1.5,1.5h-1.2c-1,0-1.5-0.5-1.5-1.5V7.1c0-1,0.5-1.5,1.5-1.5h17.7
		c2.3,0,4.3,0.3,6.1,1c2.5,0.9,3.7,2.3,3.7,4.2V14.4z M223.8,14.3v-3.2c0-1.3-1.8-2-5.5-2h-15v8h15c1.7,0,3-0.2,3.9-0.5
		C223.3,16.2,223.8,15.4,223.8,14.3"/>
	<path clip-path="url(#SVGID_10_)" fill="none" stroke="#FFFFFF" stroke-width="0.216" stroke-miterlimit="22.926" d="M228,14.4
		c0,2.3-1.2,4-3.5,5c-1.7,0.8-3.9,1.1-6.5,1.1l-14.8,0v6.8c0,1-0.5,1.5-1.5,1.5h-1.2c-1,0-1.5-0.5-1.5-1.5V7.1c0-1,0.5-1.5,1.5-1.5
		h17.7c2.3,0,4.3,0.3,6.1,1c2.5,0.9,3.7,2.3,3.7,4.2V14.4z M223.8,14.3v-3.2c0-1.3-1.8-2-5.5-2h-15v8h15c1.7,0,3-0.2,3.9-0.5
		C223.3,16.2,223.8,15.4,223.8,14.3z"/>
	<path clip-path="url(#SVGID_10_)" fill-rule="evenodd" clip-rule="evenodd" fill="#FFFFFF" d="M260.4,27.4c0,1-0.5,1.5-1.5,1.5
		h-1.2c-1,0-1.5-0.5-1.5-1.5v-8.3h-20.6v8.3c0,1-0.5,1.5-1.5,1.5h-1.3c-1,0-1.5-0.5-1.5-1.5V7.1c0-1,0.5-1.5,1.5-1.5h1.3
		c1,0,1.5,0.5,1.5,1.5v8.5h20.6V7.1c0-1,0.5-1.5,1.5-1.5h1.2c1,0,1.5,0.5,1.5,1.5L260.4,27.4z"/>
	<path clip-path="url(#SVGID_10_)" fill="none" stroke="#FFFFFF" stroke-width="0.216" stroke-miterlimit="22.926" d="M260.4,27.4
		c0,1-0.5,1.5-1.5,1.5h-1.2c-1,0-1.5-0.5-1.5-1.5v-8.3h-20.6v8.3c0,1-0.5,1.5-1.5,1.5h-1.3c-1,0-1.5-0.5-1.5-1.5V7.1
		c0-1,0.5-1.5,1.5-1.5h1.3c1,0,1.5,0.5,1.5,1.5v8.5h20.6V7.1c0-1,0.5-1.5,1.5-1.5h1.2c1,0,1.5,0.5,1.5,1.5L260.4,27.4z"/>
	<path clip-path="url(#SVGID_10_)" fill-rule="evenodd" clip-rule="evenodd" fill="#FFFFFF" d="M292.4,23.7c0,1.1-0.4,2-1.1,2.8
		c-0.5,0.5-1.4,1.1-2.6,1.7c-0.8,0.4-1.8,0.6-2.9,0.7c-0.3,0-1.4,0-3.2,0h-17.7c-1,0-1.5-0.5-1.5-1.5V7.1c0-1,0.5-1.5,1.5-1.5h1.3
		c1,0,1.5,0.5,1.5,1.5v6.8h14.8c2.6,0,4.8,0.4,6.5,1.1c2.3,1,3.5,2.7,3.5,5V23.7z M286.5,17.9c-0.8-0.3-2.1-0.5-3.9-0.5h-15v8h15
		c3.7,0,5.5-0.7,5.5-2v-3.2C288.1,19.1,287.6,18.3,286.5,17.9 M298.7,7.1c0-1-0.5-1.5-1.5-1.5H296c-1,0-1.5,0.5-1.5,1.5v20.3
		c0,1,0.5,1.5,1.5,1.5h1.3c1,0,1.5-0.5,1.5-1.5V7.1z"/>
	<path clip-path="url(#SVGID_10_)" fill="none" stroke="#FFFFFF" stroke-width="0.216" stroke-miterlimit="22.926" d="M292.4,23.7
		c0,1.1-0.4,2-1.1,2.8c-0.5,0.5-1.4,1.1-2.6,1.7c-0.8,0.4-1.8,0.6-2.9,0.7c-0.3,0-1.4,0-3.2,0h-17.7c-1,0-1.5-0.5-1.5-1.5V7.1
		c0-1,0.5-1.5,1.5-1.5h1.3c1,0,1.5,0.5,1.5,1.5v6.8h14.8c2.6,0,4.8,0.4,6.5,1.1c2.3,1,3.5,2.7,3.5,5V23.7z M286.5,17.9
		c-0.8-0.3-2.1-0.5-3.9-0.5h-15v8h15c3.7,0,5.5-0.7,5.5-2v-3.2C288.1,19.1,287.6,18.3,286.5,17.9z M298.7,7.1c0-1-0.5-1.5-1.5-1.5
		H296c-1,0-1.5,0.5-1.5,1.5v20.3c0,1,0.5,1.5,1.5,1.5h1.3c1,0,1.5-0.5,1.5-1.5V7.1z"/>
	<path clip-path="url(#SVGID_10_)" fill-rule="evenodd" clip-rule="evenodd" fill="#FFFFFF" d="M329.3,17.2l0,0.5
		c-0.1,0.9-0.6,1.4-1.5,1.4h-20.5V23c0,1.6,1.8,2.5,5.5,2.5h15c1,0,1.5,0.5,1.5,1.5l0,0.5c0,1-0.5,1.5-1.5,1.5h-15.2
		c-0.5,0-1.1,0-1.8-0.1c-5.2-0.5-7.7-2.4-7.7-5.7V11.6c0-2.2,1.3-3.8,3.8-4.9c1.7-0.7,3.7-1.1,6.1-1.1h4.1c1,0,1.5,0.5,1.5,1.5v0.5
		c0,1-0.5,1.5-1.5,1.5h-4.3l-1.2,0.1c-2.9,0.2-4.3,1-4.3,2.4v4.1h20.5C328.8,15.6,329.3,16.2,329.3,17.2"/>
	<path clip-path="url(#SVGID_10_)" fill="none" stroke="#FFFFFF" stroke-width="0.216" stroke-miterlimit="22.926" d="M329.3,17.2
		l0,0.5c-0.1,0.9-0.6,1.4-1.5,1.4h-20.5V23c0,1.6,1.8,2.5,5.5,2.5h15c1,0,1.5,0.5,1.5,1.5l0,0.5c0,1-0.5,1.5-1.5,1.5h-15.2
		c-0.5,0-1.1,0-1.8-0.1c-5.2-0.5-7.7-2.4-7.7-5.7V11.6c0-2.2,1.3-3.8,3.8-4.9c1.7-0.7,3.7-1.1,6.1-1.1h4.1c1,0,1.5,0.5,1.5,1.5v0.5
		c0,1-0.5,1.5-1.5,1.5h-4.3l-1.2,0.1c-2.9,0.2-4.3,1-4.3,2.4v4.1h20.5C328.8,15.6,329.3,16.2,329.3,17.2z"/>
	<path clip-path="url(#SVGID_10_)" fill-rule="evenodd" clip-rule="evenodd" fill="#FFFFFF" d="M84.7,49.9c0,0.4-0.2,0.6-0.6,0.6
		l-0.5,0c-0.4,0-0.6-0.2-0.6-0.6v-6.1l-5,6.2c-0.3,0.3-0.6,0.5-1.1,0.5c-0.5,0-0.8-0.2-1.1-0.5l-5.1-6.2v6.1c0,0.4-0.2,0.6-0.6,0.6
		l-0.5,0c-0.4,0-0.6-0.2-0.6-0.6V42c0-0.3,0.1-0.5,0.3-0.6c0.2-0.2,0.4-0.2,0.7-0.2c0.4,0,0.7,0.2,0.9,0.5l6,7.1l5.9-7.1
		c0.2-0.3,0.6-0.4,1-0.4c0.6,0,0.9,0.3,0.9,0.9V49.9z"/>
	<path clip-path="url(#SVGID_10_)" fill="none" stroke="#FFFFFF" stroke-width="0.216" stroke-miterlimit="22.926" d="M84.7,49.9
		c0,0.4-0.2,0.6-0.6,0.6l-0.5,0c-0.4,0-0.6-0.2-0.6-0.6v-6.1l-5,6.2c-0.3,0.3-0.6,0.5-1.1,0.5c-0.5,0-0.8-0.2-1.1-0.5l-5.1-6.2v6.1
		c0,0.4-0.2,0.6-0.6,0.6l-0.5,0c-0.4,0-0.6-0.2-0.6-0.6V42c0-0.3,0.1-0.5,0.3-0.6c0.2-0.2,0.4-0.2,0.7-0.2c0.4,0,0.7,0.2,0.9,0.5
		l6,7.1l5.9-7.1c0.2-0.3,0.6-0.4,1-0.4c0.6,0,0.9,0.3,0.9,0.9V49.9z"/>
	<path clip-path="url(#SVGID_10_)" fill-rule="evenodd" clip-rule="evenodd" fill="#FFFFFF" d="M132.5,49.6l0,0.2
		c0,0.3-0.1,0.5-0.3,0.6c-0.2,0.2-0.4,0.2-0.6,0.2c-0.3,0-0.5-0.2-0.7-0.5l-1.5-2.2h-7.2l-1.5,2.2l-0.1,0.2
		c-0.1,0.1-0.2,0.2-0.4,0.2c-0.3,0-0.6-0.1-0.7-0.3l-0.1-0.3l0-0.2l5.4-8.3c0.2-0.4,0.6-0.5,1-0.5c0.6,0,0.9,0.2,1,0.5L132.5,49.6z
		 M128.4,46.6l-2.6-3.8l-2.6,3.8H128.4z"/>
	<path clip-path="url(#SVGID_10_)" fill="none" stroke="#FFFFFF" stroke-width="0.216" stroke-miterlimit="22.926" d="M132.5,49.6
		l0,0.2c0,0.3-0.1,0.5-0.3,0.6c-0.2,0.2-0.4,0.2-0.6,0.2c-0.3,0-0.5-0.2-0.7-0.5l-1.5-2.2h-7.2l-1.5,2.2l-0.1,0.2
		c-0.1,0.1-0.2,0.2-0.4,0.2c-0.3,0-0.6-0.1-0.7-0.3l-0.1-0.3l0-0.2l5.4-8.3c0.2-0.4,0.6-0.5,1-0.5c0.6,0,0.9,0.2,1,0.5L132.5,49.6z
		 M128.4,46.6l-2.6-3.8l-2.6,3.8H128.4z"/>
	<path clip-path="url(#SVGID_10_)" fill-rule="evenodd" clip-rule="evenodd" fill="#FFFFFF" d="M177,49.1c0.4,0,1,0,1.7-0.1
		c0.8-0.1,1.2-0.4,1.2-0.9v-6.4c0-0.4,0.2-0.6,0.6-0.6l0.5,0c0.4,0,0.6,0.2,0.6,0.6v6.4c0,1.2-0.8,2-2.5,2.3
		c-0.4,0.1-1.1,0.1-2.1,0.1h-3.9c-1.1,0-1.8,0-2.1-0.1c-1.7-0.3-2.5-1.1-2.5-2.3v-6.4c0-0.4,0.2-0.6,0.6-0.6l0.5,0
		c0.4,0,0.6,0.2,0.6,0.6v6.4c0,0.5,0.4,0.8,1.2,0.9c0.3,0.1,0.9,0.1,1.7,0.1l1.1,0v-7.4c0-0.4,0.2-0.6,0.6-0.6l0.5,0
		c0.4,0,0.6,0.2,0.6,0.6v7.4H177z"/>
	<path clip-path="url(#SVGID_10_)" fill="none" stroke="#FFFFFF" stroke-width="0.216" stroke-miterlimit="22.926" d="M177,49.1
		c0.4,0,1,0,1.7-0.1c0.8-0.1,1.2-0.4,1.2-0.9v-6.4c0-0.4,0.2-0.6,0.6-0.6l0.5,0c0.4,0,0.6,0.2,0.6,0.6v6.4c0,1.2-0.8,2-2.5,2.3
		c-0.4,0.1-1.1,0.1-2.1,0.1h-3.9c-1.1,0-1.8,0-2.1-0.1c-1.7-0.3-2.5-1.1-2.5-2.3v-6.4c0-0.4,0.2-0.6,0.6-0.6l0.5,0
		c0.4,0,0.6,0.2,0.6,0.6v6.4c0,0.5,0.4,0.8,1.2,0.9c0.3,0.1,0.9,0.1,1.7,0.1l1.1,0v-7.4c0-0.4,0.2-0.6,0.6-0.6l0.5,0
		c0.4,0,0.6,0.2,0.6,0.6v7.4H177z"/>
	<path clip-path="url(#SVGID_10_)" fill-rule="evenodd" clip-rule="evenodd" fill="#FFFFFF" d="M230,49.9c0,0.4-0.2,0.6-0.6,0.6
		h-0.5c-0.4,0-0.6-0.2-0.6-0.6v-6.5l-7.9,6.7c-0.1,0.1-0.2,0.2-0.4,0.2c-0.3,0.2-0.5,0.2-0.7,0.2c-0.2,0-0.3,0-0.4-0.1
		c-0.3-0.2-0.4-0.4-0.4-0.6v-8.1c0-0.4,0.2-0.6,0.6-0.6h0.5c0.4,0,0.6,0.2,0.6,0.6v6.6l8.1-6.8c0.2-0.1,0.3-0.2,0.3-0.2
		c0.2-0.1,0.3-0.2,0.4-0.2c0.4,0,0.6,0.1,0.8,0.2c0.2,0.2,0.3,0.5,0.3,0.9V49.9z"/>
	<path clip-path="url(#SVGID_10_)" fill="none" stroke="#FFFFFF" stroke-width="0.216" stroke-miterlimit="22.926" d="M230,49.9
		c0,0.4-0.2,0.6-0.6,0.6h-0.5c-0.4,0-0.6-0.2-0.6-0.6v-6.5l-7.9,6.7c-0.1,0.1-0.2,0.2-0.4,0.2c-0.3,0.2-0.5,0.2-0.7,0.2
		c-0.2,0-0.3,0-0.4-0.1c-0.3-0.2-0.4-0.4-0.4-0.6v-8.1c0-0.4,0.2-0.6,0.6-0.6h0.5c0.4,0,0.6,0.2,0.6,0.6v6.6l8.1-6.8
		c0.2-0.1,0.3-0.2,0.3-0.2c0.2-0.1,0.3-0.2,0.4-0.2c0.4,0,0.6,0.1,0.8,0.2c0.2,0.2,0.3,0.5,0.3,0.9V49.9z"/>
	<path clip-path="url(#SVGID_10_)" fill-rule="evenodd" clip-rule="evenodd" fill="#FFFFFF" d="M279.2,49.9c0,0.4-0.2,0.6-0.6,0.6
		l-0.5,0c-0.4,0-0.6-0.2-0.6-0.6v-3.3h-8.3v3.3c0,0.4-0.2,0.6-0.6,0.6l-0.5,0c-0.4,0-0.6-0.2-0.6-0.6v-8.2c0-0.4,0.2-0.6,0.6-0.6
		h0.5c0.4,0,0.6,0.2,0.6,0.6v3.4h8.3v-3.4c0-0.4,0.2-0.6,0.6-0.6h0.5c0.4,0,0.6,0.2,0.6,0.6V49.9z"/>
	<path clip-path="url(#SVGID_10_)" fill="none" stroke="#FFFFFF" stroke-width="0.216" stroke-miterlimit="22.926" d="M279.2,49.9
		c0,0.4-0.2,0.6-0.6,0.6l-0.5,0c-0.4,0-0.6-0.2-0.6-0.6v-3.3h-8.3v3.3c0,0.4-0.2,0.6-0.6,0.6l-0.5,0c-0.4,0-0.6-0.2-0.6-0.6v-8.2
		c0-0.4,0.2-0.6,0.6-0.6h0.5c0.4,0,0.6,0.2,0.6,0.6v3.4h8.3v-3.4c0-0.4,0.2-0.6,0.6-0.6h0.5c0.4,0,0.6,0.2,0.6,0.6V49.9z"/>
	<path clip-path="url(#SVGID_10_)" fill-rule="evenodd" clip-rule="evenodd" fill="#FFFFFF" d="M327,48.4c0,0.4-0.1,0.8-0.4,1.1
		c-0.2,0.2-0.6,0.4-1.1,0.7c-0.3,0.2-0.7,0.3-1.2,0.3c-0.1,0-0.6,0-1.3,0H316c-0.4,0-0.6-0.2-0.6-0.6v-8.2c0-0.4,0.2-0.6,0.6-0.6
		h0.5c0.4,0,0.6,0.2,0.6,0.6v2.7h5.9c1.1,0,1.9,0.2,2.6,0.5c0.9,0.4,1.4,1.1,1.4,2V48.4z M324.7,46.1c-0.3-0.1-0.9-0.2-1.5-0.2h-6
		v3.2h6c1.5,0,2.2-0.3,2.2-0.8l0-1.3C325.3,46.6,325.1,46.2,324.7,46.1 M329.6,41.7c0-0.4-0.2-0.6-0.6-0.6h-0.5
		c-0.4,0-0.6,0.2-0.6,0.6l0,8.2c0,0.4,0.2,0.6,0.6,0.6h0.5c0.4,0,0.6-0.2,0.6-0.6V41.7z"/>
	<path clip-path="url(#SVGID_10_)" fill="none" stroke="#FFFFFF" stroke-width="0.216" stroke-miterlimit="22.926" d="M327,48.4
		c0,0.4-0.1,0.8-0.4,1.1c-0.2,0.2-0.6,0.4-1.1,0.7c-0.3,0.2-0.7,0.3-1.2,0.3c-0.1,0-0.6,0-1.3,0H316c-0.4,0-0.6-0.2-0.6-0.6v-8.2
		c0-0.4,0.2-0.6,0.6-0.6h0.5c0.4,0,0.6,0.2,0.6,0.6v2.7h5.9c1.1,0,1.9,0.2,2.6,0.5c0.9,0.4,1.4,1.1,1.4,2V48.4z M324.7,46.1
		c-0.3-0.1-0.9-0.2-1.5-0.2h-6v3.2h6c1.5,0,2.2-0.3,2.2-0.8l0-1.3C325.3,46.6,325.1,46.2,324.7,46.1z M329.6,41.7
		c0-0.4-0.2-0.6-0.6-0.6h-0.5c-0.4,0-0.6,0.2-0.6,0.6l0,8.2c0,0.4,0.2,0.6,0.6,0.6h0.5c0.4,0,0.6-0.2,0.6-0.6V41.7z"/>
</g>
</svg>
